<?xml version="1.0" standalone="no"?>
<!DOCTYPE svg PUBLIC "-//W3C//DTD SVG 20010904//EN"
 "http://www.w3.org/TR/2001/REC-SVG-20010904/DTD/svg10.dtd">
<svg version="1.0" xmlns="http://www.w3.org/2000/svg"
 width="828.000000pt" height="828.000000pt" viewBox="0 0 828.000000 828.000000"
 preserveAspectRatio="xMidYMid meet">
<metadata>
Created by potrace 1.14, written by Peter Selinger 2001-2017
</metadata>
<g transform="translate(0.000000,828.000000) scale(0.100000,-0.100000)"
fill="#000000" stroke="none">
<path d="M530 8265 c9 -11 17 -11 36 -3 20 10 27 9 35 -3 5 -8 9 -10 9 -5 0 5
10 1 22 -10 21 -19 21 -19 16 2 -5 20 -2 22 31 19 42 -3 71 -13 71 -26 0 -5 9
-9 20 -9 11 0 20 5 20 10 0 13 52 1 62 -14 8 -12 11 -2 9 27 -1 9 3 17 9 17 6
0 9 -4 6 -8 -7 -12 36 -13 50 -1 8 7 15 6 19 -2 6 -8 10 -7 16 2 7 12 9 12 9
0 0 -10 3 -11 14 -2 11 9 17 8 29 -4 18 -18 31 -20 21 -3 -5 8 -2 9 9 5 11 -4
17 -1 17 8 0 8 -7 15 -15 15 -8 0 -15 -5 -15 -10 0 -7 -7 -7 -20 0 -13 7 -104
10 -256 9 -195 -1 -233 -3 -224 -14z"/>
<path d="M1144 8269 c-2 -5 7 -11 21 -15 15 -4 28 -15 31 -30 5 -20 9 -22 25
-13 10 5 19 16 19 23 0 8 20 17 49 23 37 7 48 7 45 -2 -3 -6 11 -16 31 -22 19
-6 33 -7 29 -2 -3 5 -1 9 5 9 6 0 7 7 4 17 -5 12 -3 14 7 8 8 -5 11 -4 7 2 -8
13 -265 15 -273 2z m82 -34 c4 -26 -13 -16 -19 11 -3 18 -1 22 6 15 6 -6 12
-18 13 -26z"/>
<path d="M1455 8273 c11 -3 23 -10 26 -15 4 -6 12 -7 18 -4 21 13 11 21 -27
22 -20 1 -28 0 -17 -3z"/>
<path d="M1528 8273 c6 -2 9 -9 6 -15 -4 -6 2 -5 15 1 28 16 26 21 -6 20 -16
0 -22 -3 -15 -6z"/>
<path d="M1584 8268 c-4 -7 -3 -8 5 -4 6 4 19 2 27 -5 12 -10 13 -9 8 5 -7 19
-30 21 -40 4z"/>
<path d="M1653 8266 c3 -7 0 -19 -6 -26 -7 -7 8 -2 32 10 24 12 46 18 50 13 3
-5 17 -4 31 4 23 12 19 13 -44 13 -54 0 -67 -3 -63 -14z"/>
<path d="M1801 8225 c1 -27 3 -41 6 -30 7 30 19 38 34 23 21 -19 36 -20 67 -4
18 9 33 11 43 5 14 -9 12 -10 -28 -14 -32 -3 -82 -37 -63 -43 8 -3 16 0 18 6
2 8 7 8 17 -1 7 -7 10 -16 7 -21 -3 -5 0 -6 7 -2 7 5 16 18 21 31 5 12 19 25
32 28 22 6 22 5 4 -8 -20 -15 -20 -15 0 -16 17 0 17 -1 -3 -11 -13 -6 -23 -19
-23 -29 0 -9 -6 -20 -12 -22 -7 -3 4 -6 24 -6 20 -1 39 -7 42 -13 3 -7 3 -1 0
15 -5 22 -3 27 12 27 16 0 17 -2 4 -10 -10 -6 -11 -10 -3 -10 7 0 13 -3 12 -7
-2 -16 14 -53 22 -53 13 0 11 14 -3 28 -9 9 -8 15 8 27 10 8 15 15 10 15 -6 0
-1 6 9 14 18 13 18 14 -3 25 -24 13 -30 31 -10 31 6 0 8 -3 5 -7 -4 -3 2 -13
13 -20 17 -12 18 -18 9 -35 -9 -17 -8 -24 4 -33 14 -10 14 -13 -4 -25 -10 -8
-19 -20 -19 -28 0 -7 -5 -10 -11 -6 -7 4 -9 -2 -7 -17 2 -13 9 -23 16 -21 8 1
12 -7 10 -25 -3 -23 1 -28 22 -30 14 -1 20 0 13 3 -7 3 -9 12 -6 21 4 10 2 14
-4 10 -5 -3 -10 1 -10 10 0 8 14 20 30 25 21 8 25 13 15 19 -9 6 -7 9 10 9 13
0 21 -4 17 -9 -3 -5 -1 -12 4 -15 5 -4 12 2 15 11 3 10 4 6 2 -9 -2 -16 1 -28
5 -28 5 0 9 5 9 10 0 6 5 10 11 10 5 0 7 -4 4 -10 -3 -5 1 -10 9 -10 24 0 19
-37 -6 -55 -18 -12 -24 -12 -27 -3 -2 7 -8 24 -14 38 -6 14 -11 28 -11 33 -1
4 -4 7 -8 7 -5 0 -12 0 -18 0 -14 0 -8 -21 13 -44 9 -11 17 -25 17 -32 0 -7
10 -23 23 -35 23 -23 4 -16 -25 9 -16 13 -18 13 -24 -1 -3 -8 -7 -23 -8 -33
-2 -10 -9 -20 -16 -22 -7 -3 -10 0 -6 7 4 6 4 11 -1 11 -4 0 -14 14 -21 30 -8
17 -17 30 -21 30 -13 0 1 -53 17 -69 13 -13 12 -16 -4 -22 -18 -7 -18 -8 -1
-8 10 -1 28 4 39 10 11 6 23 7 27 3 3 -5 15 -10 26 -12 50 -7 65 -13 65 -28 0
-14 -2 -15 -17 -3 -15 12 -16 12 -10 -4 4 -10 7 -24 7 -30 0 -6 8 0 17 13 9
14 21 28 26 31 18 12 -2 39 -28 39 -14 0 -25 5 -25 11 0 5 8 9 18 8 30 -3 32
1 12 21 -24 24 -26 45 -4 36 10 -4 13 -2 8 6 -4 7 -3 8 4 4 7 -4 12 -14 12
-22 0 -8 -4 -12 -10 -9 -5 3 -10 1 -10 -4 0 -6 9 -11 21 -11 16 0 19 -4 14
-22 -4 -16 0 -14 12 8 l18 31 23 -22 c17 -16 19 -22 8 -22 -8 0 -12 5 -9 10 3
5 0 7 -8 5 -8 -3 -13 -11 -11 -17 1 -6 -3 -11 -9 -11 -6 0 -9 -7 -6 -15 4 -8
2 -17 -3 -20 -17 -11 -11 -44 10 -55 11 -6 20 -20 20 -31 0 -12 -4 -17 -11
-13 -6 3 -15 0 -20 -7 -7 -10 -8 -6 -4 11 4 19 0 31 -14 45 -12 10 -24 15 -28
11 -4 -4 3 -16 17 -26 14 -11 20 -20 13 -20 -6 0 -15 5 -18 10 -3 6 -15 10
-25 10 -12 0 -21 10 -25 29 -5 22 -11 28 -22 24 -13 -5 -13 -7 1 -15 9 -5 16
-20 16 -33 0 -14 5 -25 10 -25 21 0 9 -20 -12 -21 -22 0 -22 -1 -3 -9 11 -5
15 -9 8 -9 -7 -1 -23 -12 -36 -25 -19 -19 -21 -26 -11 -30 8 -3 14 1 14 10 0
8 5 12 10 9 6 -3 10 -1 10 4 0 6 5 11 11 11 8 0 8 -4 0 -14 -13 -15 -4 -49 10
-40 5 3 7 9 4 14 -3 5 0 12 6 16 8 4 9 -3 4 -26 -5 -23 -4 -30 4 -26 6 4 11
13 11 21 0 7 6 16 13 18 10 4 10 6 0 6 -18 1 -16 21 2 21 8 0 15 -4 15 -10 0
-14 26 -12 42 3 15 14 48 19 48 6 0 -4 -4 -11 -10 -14 -5 -3 -10 -11 -10 -16
0 -5 12 1 26 15 15 13 23 29 20 35 -4 6 -11 9 -15 7 -4 -3 -6 13 -5 34 1 29
-2 37 -12 33 -8 -3 -17 5 -23 20 -5 14 -16 27 -23 29 -7 3 5 5 27 5 22 1 33
-2 24 -5 -17 -7 -12 -44 6 -43 6 0 10 -5 10 -12 1 -6 6 -22 13 -33 6 -12 9
-24 6 -26 -2 -3 8 -13 23 -23 l27 -18 -23 -8 c-14 -6 -20 -13 -15 -21 5 -9 2
-8 -10 1 -14 12 -19 12 -29 1 -9 -10 -9 -11 0 -6 20 11 54 -26 42 -44 -9 -12
-10 -12 -5 3 3 10 2 15 -3 12 -5 -3 -12 -1 -16 5 -9 15 -25 12 -25 -5 0 -9 6
-12 15 -9 8 4 15 1 15 -5 0 -6 -5 -11 -12 -11 -6 0 -3 -7 8 -16 10 -8 14 -13
7 -10 -6 4 -16 -8 -22 -27 -10 -26 -14 -29 -22 -17 -8 13 -11 13 -20 -2 -5
-10 -17 -18 -24 -18 -8 0 -15 -7 -15 -15 0 -13 -30 -21 -44 -12 -2 1 -14 -10
-26 -26 -12 -15 -25 -25 -28 -23 -4 2 -16 0 -27 -4 -13 -5 -26 -2 -36 6 -14
12 -20 10 -48 -16 -17 -17 -35 -29 -39 -26 -6 4 -7 -23 -3 -87 1 -11 6 -15 12
-11 7 4 10 -1 7 -11 -2 -12 -13 -19 -30 -19 -15 -1 -33 -8 -40 -15 -11 -11 -8
-12 17 -7 22 5 26 4 15 -3 -8 -6 -34 -13 -57 -17 -29 -4 -43 -12 -46 -25 -3
-10 -1 -19 4 -19 5 0 9 -7 9 -16 0 -9 -5 -12 -11 -8 -7 4 -10 1 -7 -7 3 -8 12
-13 19 -11 8 2 2 -8 -13 -22 -15 -14 -32 -26 -38 -26 -5 0 -10 -5 -10 -11 0
-5 5 -7 10 -4 6 3 10 -1 10 -9 0 -9 6 -16 13 -16 6 0 4 -5 -6 -11 -14 -8 -16
-14 -6 -25 9 -11 8 -14 -9 -14 -29 0 -52 -10 -52 -23 0 -7 4 -7 12 1 17 17 26
15 38 -8 9 -16 8 -19 -6 -13 -14 5 -16 2 -12 -15 4 -13 2 -20 -6 -19 -6 1 -11
-7 -11 -18 0 -11 -8 -26 -17 -33 -10 -7 -18 -20 -18 -29 0 -22 -32 -72 -49
-76 -9 -3 -2 -5 14 -6 l30 -2 -30 -14 c-16 -7 -26 -14 -21 -14 4 -1 1 -12 -8
-26 -9 -13 -16 -31 -16 -39 0 -10 -6 -13 -17 -10 -11 4 -14 3 -7 -3 20 -14 22
-73 3 -73 -7 0 -9 11 -5 28 3 15 3 21 0 14 -3 -6 -11 -9 -17 -5 -7 4 -8 0 -4
-10 4 -10 10 -24 13 -32 5 -11 -1 -15 -21 -15 -27 0 -27 -1 -20 -46 6 -40 3
-49 -16 -70 -12 -13 -19 -24 -16 -24 4 0 -2 -17 -13 -37 -17 -32 -18 -39 -5
-53 18 -20 16 -60 -3 -60 -11 0 -12 3 -3 14 9 11 10 20 1 35 -13 26 -26 26
-47 2 -9 -11 -20 -18 -24 -15 -4 2 -5 -5 -2 -15 3 -11 14 -22 26 -25 21 -5 21
-5 2 -24 -11 -11 -24 -17 -30 -14 -7 3 -7 1 0 -6 6 -5 19 -13 30 -16 11 -3 5
-4 -12 -2 -37 3 -39 1 -18 -20 13 -14 13 -17 -2 -32 -12 -13 -17 -14 -21 -4
-5 15 -32 -3 -32 -22 0 -6 4 -4 10 4 7 12 13 9 34 -15 29 -33 32 -45 14 -63
-9 -9 -15 -9 -27 2 -9 8 -27 12 -41 9 l-26 -5 31 -32 c32 -34 65 -52 65 -35 0
6 4 7 10 4 5 -3 10 -2 10 3 0 5 -11 10 -24 10 -26 -1 -56 22 -56 42 0 6 10 4
25 -6 14 -9 28 -14 32 -11 8 9 33 -19 33 -36 0 -17 -45 -31 -62 -21 -6 4 -8 3
-4 -4 3 -6 -2 -16 -11 -22 -16 -10 -16 -10 4 -5 12 3 25 1 28 -6 6 -8 10 -7
16 2 7 11 9 11 9 -2 0 -18 -20 -29 -48 -28 -14 0 -13 2 3 9 l20 9 -20 0 c-11
0 -27 -3 -35 -9 -11 -7 -9 -11 12 -19 21 -8 25 -14 20 -33 -5 -18 -7 -20 -10
-5 -2 9 -11 17 -20 17 -13 0 -14 -2 -4 -9 11 -7 10 -9 -3 -14 -9 -4 -13 -3
-10 3 3 6 1 10 -6 10 -8 0 -8 4 1 15 15 19 10 19 -25 1 -26 -14 -26 -14 -6
-21 12 -3 19 -10 16 -15 -3 -5 -1 -11 4 -14 10 -6 9 -20 -4 -49 -7 -17 -8 -17
-21 0 -7 10 -14 14 -14 9 0 -5 -7 -2 -17 5 -15 13 -15 12 -4 -8 15 -30 -5 -63
-38 -63 -24 0 -24 0 -5 15 12 9 14 14 6 15 -7 0 -20 -7 -28 -15 -13 -12 -11
-15 18 -23 l33 -8 -27 -6 c-16 -3 -28 -1 -28 3 0 5 -7 6 -15 3 -8 -4 -12 -10
-9 -15 3 -5 1 -9 -5 -9 -5 0 -12 6 -15 13 -3 6 -4 0 -2 -15 2 -16 0 -28 -4
-28 -11 0 -21 30 -15 41 4 5 -1 6 -9 3 -19 -7 -20 -18 -6 -45 12 -21 -4 -27
-17 -6 -9 13 -63 18 -63 4 0 -4 -4 -6 -9 -3 -8 6 -63 -31 -69 -46 -2 -5 -9 -6
-15 -2 -7 3 -3 -2 7 -10 11 -9 25 -16 30 -17 6 0 1 -4 -11 -9 -19 -8 -20 -12
-10 -34 6 -13 15 -22 20 -19 5 3 3 -5 -5 -16 -13 -21 -13 -21 -16 9 -3 26 -6
29 -18 19 -10 -8 -14 -8 -14 0 0 6 4 11 9 11 13 0 0 51 -15 57 -17 6 -2 22 41
42 l30 14 -44 9 c-29 7 -47 6 -54 -1 -8 -8 -1 -11 23 -11 l35 0 -29 -15 c-15
-8 -33 -12 -40 -8 -6 4 -24 8 -40 8 -28 1 -28 1 -7 -13 11 -8 21 -18 21 -22 0
-8 -31 -7 -47 3 -6 4 -13 0 -17 -8 -3 -8 -18 -15 -33 -15 -27 -1 -28 -1 -8
-17 18 -14 18 -15 2 -9 -10 3 -22 6 -27 6 -5 0 -11 8 -13 18 -4 16 -5 16 -6
-1 -1 -12 10 -22 29 -28 30 -11 32 -29 4 -29 -8 0 -12 5 -9 10 3 6 1 10 -6 10
-7 0 -9 -10 -7 -25 4 -18 0 -26 -14 -31 -18 -5 -18 -7 -4 -23 18 -20 21 -36 6
-26 -5 3 -10 1 -10 -6 0 -7 -8 -2 -19 9 -10 12 -24 22 -30 22 -8 0 -7 -5 3
-16 21 -20 20 -24 -5 -24 -11 0 -18 4 -15 9 11 17 -27 36 -70 36 -31 1 -44 -3
-44 -13 0 -10 7 -12 24 -8 16 4 26 1 30 -9 7 -18 -13 -20 -49 -3 -14 6 -25 18
-25 27 0 14 -2 14 -10 1 -9 -13 -10 -13 -11 0 -1 8 -1 18 -1 21 1 3 -6 6 -13
6 -10 0 -12 -4 -5 -12 7 -8 0 -11 -25 -11 -19 1 -35 -3 -35 -9 0 -5 16 -10 35
-11 37 -1 53 -9 41 -21 -4 -4 -16 -2 -26 5 -11 7 -20 8 -20 3 0 -5 9 -13 20
-16 11 -3 20 -11 20 -16 0 -5 10 -10 23 -10 17 -1 18 -2 4 -6 -10 -3 -24 0
-31 6 -13 11 -56 4 -56 -10 0 -5 -7 -9 -16 -9 -8 0 -12 5 -9 10 3 6 0 10 -7
10 -7 1 1 7 17 15 32 14 32 15 -3 19 -12 2 -22 -1 -22 -6 0 -5 -5 -6 -10 -3
-18 11 1 26 23 19 19 -6 20 -5 10 8 -7 8 -9 19 -5 24 4 4 0 3 -10 -4 -13 -10
-17 -10 -21 0 -7 20 -17 4 -20 -31 -3 -38 -22 -41 -25 -3 -1 21 0 23 8 12 8
-13 10 -13 10 2 0 9 -6 19 -12 21 -10 4 -10 6 0 6 8 1 11 10 7 29 -3 15 -2 21
1 15 3 -7 13 -13 22 -12 11 0 12 2 5 6 -20 7 -15 23 4 16 11 -4 7 4 -10 18
-31 28 -36 44 -8 29 26 -14 31 -13 31 6 0 9 -6 14 -12 11 -7 -2 -24 0 -37 5
-20 7 -23 6 -18 -11 3 -14 1 -18 -10 -14 -7 3 -12 8 -9 10 3 3 -4 14 -15 26
-10 11 -19 31 -19 43 0 13 -4 26 -10 29 -6 3 -7 -1 -4 -10 5 -11 2 -14 -12 -9
-18 6 -18 6 0 -8 11 -9 17 -22 13 -31 -4 -10 2 -17 16 -21 13 -3 18 -9 12 -13
-20 -15 -16 -35 5 -28 11 3 20 2 20 -3 0 -5 -11 -12 -25 -14 -23 -5 -30 2 -26
25 4 20 -24 -2 -30 -24 -6 -20 -7 -21 -8 -4 -2 24 -22 59 -36 62 -5 1 -18 5
-27 8 -13 5 -18 2 -18 -12 0 -11 7 -20 15 -20 8 0 12 4 9 9 -3 4 0 8 5 8 6 0
11 -12 11 -27 0 -18 -3 -24 -8 -15 -12 19 -71 11 -78 -10 -3 -9 -10 -15 -17
-13 -42 12 -68 15 -62 5 4 -6 -6 -10 -25 -10 -19 0 -29 4 -25 10 4 6 11 8 16
5 5 -4 5 3 0 18 -6 14 -7 28 -4 31 4 3 2 6 -4 6 -13 0 -25 -28 -17 -41 3 -5 0
-9 -6 -9 -8 0 -10 10 -6 28 5 20 4 23 -4 12 -14 -21 -13 -47 3 -53 9 -4 9 -6
0 -6 -17 -1 -17 -38 0 -44 9 -4 9 -6 0 -6 -19 -1 -16 -21 5 -38 16 -14 16 -14
0 -9 -17 5 -18 -128 -18 -2694 l0 -2700 4140 0 4140 0 0 4140 0 4140 -3142 0
c-2481 0 -3144 -3 -3157 -13 -9 -7 -12 -8 -8 -1 4 7 -2 12 -18 12 -14 0 -22
-4 -19 -9 3 -5 0 -9 -5 -9 -6 0 -11 4 -11 8 0 5 -27 9 -60 8 l-60 -1 1 -50z
m51 21 c7 4 8 2 4 -4 -4 -7 -1 -12 8 -12 18 0 30 16 16 23 -6 3 -5 4 1 3 7 -1
13 -10 15 -19 1 -12 -5 -17 -19 -17 -26 1 -60 24 -50 34 4 4 9 2 11 -3 2 -6 9
-8 14 -5z m186 -7 c12 -18 10 -23 -9 -40 -12 -10 -27 -19 -33 -19 -6 0 -5 4 3
9 7 5 14 23 15 40 1 36 6 39 24 10z m252 11 c0 -5 -2 -10 -4 -10 -3 0 -8 5
-11 10 -3 6 -1 10 4 10 6 0 11 -4 11 -10z m-147 -7 c-7 -2 -19 -2 -25 0 -7 3
-2 5 12 5 14 0 19 -2 13 -5z m87 -45 c0 -4 -8 -8 -17 -8 -15 0 -16 2 -3 10 8
5 10 10 4 10 -7 0 -15 8 -18 17 -6 15 -4 15 14 -2 11 -10 20 -22 20 -27z m-45
22 c3 -5 2 -17 -3 -26 -6 -11 -11 -13 -16 -5 -4 6 -2 11 5 11 8 0 8 4 -1 15
-8 9 -9 15 -2 15 6 0 14 -4 17 -10z m-48 -25 c0 -8 -4 -15 -9 -15 -4 0 -8 7
-8 15 0 8 4 15 8 15 5 0 9 -7 9 -15z m-217 -25 c0 -5 -2 -10 -4 -10 -3 0 -8 5
-11 10 -3 6 -1 10 4 10 6 0 11 -4 11 -10z m114 -5 c4 -11 -1 -14 -19 -13 -27
3 -33 13 -12 21 20 9 25 8 31 -8z m81 5 c3 -5 2 -10 -4 -10 -5 0 -13 5 -16 10
-3 6 -2 10 4 10 5 0 13 -4 16 -10z m-138 -35 c0 -8 -4 -15 -9 -15 -4 0 -8 7
-8 15 0 8 4 15 8 15 5 0 9 -7 9 -15z m314 -67 c4 -32 -3 -94 -12 -111 -6 -10
-8 -25 -5 -33 3 -8 1 -14 -4 -14 -6 0 -10 9 -10 19 0 11 -5 23 -10 26 -6 4 -1
15 12 26 l23 20 -22 -11 c-19 -9 -23 -8 -23 5 0 8 -5 15 -12 15 -9 0 -9 3 0
12 10 10 15 10 22 -2 9 -13 11 -13 20 0 7 11 5 17 -8 22 -9 4 -11 7 -4 7 6 1
12 8 12 16 0 18 19 20 21 3z m-84 -18 c1 -11 -2 -18 -8 -15 -11 7 -12 35 -1
35 4 0 8 -9 9 -20z m153 16 c0 -2 -7 -7 -16 -10 -8 -3 -12 -2 -9 4 6 10 25 14
25 6z m-21 -88 c0 -7 -5 -22 -10 -33 -8 -17 -9 -16 -4 7 3 16 0 28 -8 31 -7 3
-5 6 6 6 9 1 17 -5 16 -11z m-149 -115 c0 -9 -2 -14 -4 -12 -2 2 -4 7 -3 11 1
4 -7 14 -18 23 -20 16 -19 16 3 5 12 -6 22 -18 22 -27z m115 -74 c11 -17 -1
-21 -15 -4 -8 9 -8 15 -2 15 6 0 14 -5 17 -11z m95 -29 c0 -5 -4 -10 -10 -10
-5 0 -10 5 -10 10 0 6 5 10 10 10 6 0 10 -4 10 -10z m-155 -61 c0 -7 -9 -15
-20 -16 l-20 -3 20 9 c18 9 18 10 2 10 -10 1 -15 6 -12 12 9 14 30 6 30 -12z
m229 -115 c3 -8 2 -12 -4 -9 -6 3 -10 10 -10 16 0 14 7 11 14 -7z m36 2 c0 -3
-4 -8 -10 -11 -5 -3 -10 -1 -10 4 0 6 5 11 10 11 6 0 10 -2 10 -4z m107 -18
c-3 -8 -6 -5 -6 6 -1 11 2 17 5 13 3 -3 4 -12 1 -19z m-167 -8 c0 -5 -5 -10
-11 -10 -5 0 -7 5 -4 10 3 6 8 10 11 10 2 0 4 -4 4 -10z m17 -76 c-3 -3 -12
-4 -19 -1 -8 3 -5 6 6 6 11 1 17 -2 13 -5z m-150 -20 c-3 -3 -12 -4 -19 -1 -8
3 -5 6 6 6 11 1 17 -2 13 -5z m78 -74 c3 -6 -1 -7 -9 -4 -18 7 -21 14 -7 14 6
0 13 -4 16 -10z m-292 -20 c-3 -11 -9 -17 -14 -14 -5 3 -9 -2 -9 -10 0 -9 -7
-16 -15 -16 -12 0 -14 4 -5 20 8 15 34 37 47 40 0 0 -1 -9 -4 -20z m187 -5 c0
-2 -7 -5 -15 -9 -9 -3 -15 0 -15 9 0 9 6 12 15 9 8 -4 15 -7 15 -9z m-170 -56
c0 -5 -4 -9 -10 -9 -5 0 -10 7 -10 16 0 8 5 12 10 9 6 -3 10 -10 10 -16z m-34
-76 c-2 -9 -9 -19 -17 -21 -11 -3 -11 -1 1 7 8 6 11 11 7 11 -5 0 -5 5 -2 10
9 15 14 12 11 -7z m-73 -50 c-7 -2 -19 -2 -25 0 -7 3 -2 5 12 5 14 0 19 -2 13
-5z m-43 -14 c0 -5 -4 -7 -10 -4 -16 10 -12 -5 6 -23 12 -12 13 -17 4 -20 -9
-3 -9 -6 1 -13 12 -7 12 -9 1 -9 -8 0 -19 14 -25 30 -6 17 -15 30 -20 30 -4 0
-5 5 -2 10 8 13 45 13 45 -1z m45 -28 c-6 -5 -25 10 -25 20 0 5 6 4 14 -3 8
-7 12 -15 11 -17z m-28 -77 c-3 -3 -12 -4 -19 -1 -8 3 -5 6 6 6 11 1 17 -2 13
-5z m1182 -381 c7 -15 7 -23 1 -23 -6 0 -10 6 -10 14 0 7 -8 20 -17 27 -16 13
-17 12 -5 -3 8 -10 12 -22 10 -28 -2 -7 -13 6 -25 28 l-21 40 29 -16 c15 -9
33 -27 38 -39z m-1389 7 c-13 -11 -25 -20 -28 -20 -3 0 3 9 13 20 10 11 23 20
28 20 6 0 0 -9 -13 -20z m-10 -50 c0 -5 -7 -10 -15 -10 -8 0 -15 5 -15 10 0 6
7 10 15 10 8 0 15 -4 15 -10z m1238 -43 c15 -41 15 -47 2 -47 -5 0 -10 6 -10
13 0 6 -7 24 -14 40 -11 20 -12 27 -2 27 6 0 17 -15 24 -33z m177 -4 c-19 -18
-30 -17 -15 2 9 10 9 15 1 15 -6 0 -11 5 -11 10 0 6 7 6 19 -2 16 -9 17 -14 6
-25z m-1445 -43 c0 -5 -2 -10 -4 -10 -3 0 -8 5 -11 10 -3 6 -1 10 4 10 6 0 11
-4 11 -10z m739 -26 c14 9 14 0 1 -25 -8 -14 -7 -19 3 -19 7 0 13 -12 13 -27
1 -16 4 -37 8 -48 6 -16 6 -17 -3 -5 -8 11 -11 12 -11 2 0 -7 -4 -10 -10 -7
-6 3 -7 -1 -4 -9 3 -9 10 -16 15 -16 5 0 8 -3 8 -7 -1 -5 0 -10 1 -13 8 -22 9
-90 0 -95 -5 -3 -10 -17 -10 -30 0 -19 -4 -22 -21 -18 -20 6 -20 7 -5 18 14
11 14 14 2 24 -10 8 -16 9 -21 1 -13 -20 -20 -9 -20 30 0 28 4 39 13 35 14 -5
15 5 2 39 -6 17 -6 27 2 32 7 5 5 11 -7 20 -17 13 -16 14 15 21 32 6 32 7 11
15 -20 7 -22 13 -17 39 3 17 6 39 6 48 0 13 2 13 9 2 5 -7 14 -10 20 -7z m551
5 c0 -4 3 -14 6 -23 4 -12 0 -16 -15 -16 -12 0 -21 5 -21 11 0 5 5 7 10 4 6
-3 10 -1 10 4 0 6 -4 11 -10 11 -5 0 -10 4 -10 8 0 5 7 9 15 9 8 0 15 -4 15
-8z m-420 -49 c0 -5 -4 -10 -10 -10 -5 0 -10 5 -10 10 0 6 5 10 10 10 6 0 10
-4 10 -10z m423 -42 c9 -16 17 -37 17 -47 0 -9 6 -23 13 -30 10 -11 8 -11 -10
0 -12 7 -20 16 -17 20 2 4 -3 10 -12 13 -8 3 -13 10 -10 15 3 4 -3 16 -14 26
-11 10 -20 26 -20 37 0 15 3 16 18 7 10 -6 26 -25 35 -41z m-359 18 c-1 -9 2
-16 7 -16 5 0 5 -7 2 -17 -4 -11 -3 -14 5 -9 7 4 12 1 12 -8 0 -10 6 -13 15
-10 11 5 13 2 8 -12 -4 -12 -3 -15 5 -10 7 4 12 2 12 -5 0 -7 2 -10 5 -7 10
10 -7 58 -18 51 -6 -3 -7 -1 -3 6 5 8 20 -1 47 -26 21 -20 45 -38 54 -39 19
-3 19 -2 -5 26 -21 25 -26 45 -11 54 5 4 7 -4 3 -16 -3 -14 -1 -19 6 -14 16
10 29 -19 36 -85 3 -31 45 -89 63 -89 8 0 11 5 8 10 -3 6 -2 10 4 10 5 0 13
-10 17 -22 4 -13 17 -36 30 -51 22 -27 24 -55 3 -42 -10 7 -12 -8 -2 -18 3 -4
12 1 19 11 12 16 14 16 33 -4 24 -26 15 -41 -11 -17 -10 9 -18 11 -18 6 0 -18
27 -34 44 -27 11 4 16 2 14 -7 -2 -8 3 -13 10 -11 6 1 12 -2 12 -7 0 -16 131
-141 141 -135 5 3 9 1 9 -5 0 -5 16 -19 35 -31 19 -12 35 -28 35 -36 0 -13 13
-19 35 -14 5 1 7 -1 4 -5 -7 -6 52 -69 81 -86 13 -8 13 -10 0 -18 -11 -8 -12
-13 -3 -22 6 -6 9 -18 6 -27 -5 -10 -2 -13 6 -8 7 5 11 17 8 27 -3 11 -1 17 4
13 5 -3 9 -16 9 -30 0 -15 4 -23 10 -19 6 4 8 11 5 16 -4 5 -2 9 4 9 5 0 13
-9 16 -21 4 -11 12 -18 18 -16 24 8 34 -16 24 -57 -9 -33 -8 -41 8 -52 10 -8
28 -11 39 -9 12 3 37 7 56 9 44 4 70 15 70 29 0 6 -3 7 -6 4 -4 -4 -14 2 -23
12 -9 10 -23 20 -31 23 -10 4 -6 8 13 13 21 6 26 12 22 26 -10 31 22 23 56
-13 25 -27 29 -40 26 -70 -2 -21 0 -38 4 -38 5 0 9 -9 9 -20 0 -32 38 -26 42
7 3 25 36 44 39 22 1 -5 3 -13 4 -19 1 -5 3 -13 4 -16 0 -3 5 -3 10 1 6 3 6
17 2 33 -7 23 -5 28 10 29 10 1 27 -9 38 -23 21 -27 35 -13 19 20 -7 13 -6 21
3 26 15 10 41 1 33 -11 -3 -5 2 -16 10 -24 13 -14 18 -12 46 15 17 17 35 28
40 25 4 -3 6 3 4 12 -6 24 35 51 47 31 6 -9 9 -6 10 12 0 23 1 23 9 5 8 -19 9
-19 9 -1 1 14 7 17 25 14 13 -3 23 0 22 6 0 6 4 12 9 13 6 1 12 12 15 24 5 21
7 21 22 6 11 -12 33 -17 70 -16 45 0 50 2 31 11 -22 11 -39 38 -24 38 5 0 11
-5 13 -11 2 -5 12 -11 23 -13 11 -2 21 -9 21 -17 1 -8 2 -22 3 -31 0 -10 7
-18 14 -18 7 0 18 -9 25 -20 8 -13 23 -20 43 -20 18 0 28 -4 24 -10 -4 -6 -14
-10 -23 -8 -10 1 -18 -2 -20 -7 -4 -14 39 -19 48 -5 5 8 9 8 13 -3 4 -10 -3
-17 -24 -21 -20 -4 -28 -10 -23 -18 6 -9 9 -9 12 0 2 7 10 12 18 12 12 0 12
-4 3 -21 -6 -12 -7 -19 -1 -15 17 10 34 -22 30 -58 -3 -30 -2 -33 14 -25 12 6
24 5 38 -3 20 -12 21 -22 6 -59 -6 -12 0 -15 27 -15 23 1 33 5 30 14 -3 6 0
12 6 12 11 0 15 -20 12 -49 -2 -7 4 -11 11 -9 7 3 19 -2 26 -11 8 -9 11 -11 8
-4 -5 8 0 8 19 0 14 -7 23 -18 20 -24 -2 -7 1 -13 8 -13 8 0 9 -2 1 -8 -6 -4
-10 -15 -8 -24 1 -10 -2 -18 -7 -18 -5 0 -9 7 -9 15 0 17 -9 19 -28 6 -10 -6
-5 -12 18 -21 17 -7 27 -16 22 -19 -4 -3 -5 -17 -1 -31 6 -23 7 -23 8 -3 1 12
6 25 12 29 8 4 9 0 4 -15 -5 -16 -2 -21 12 -22 10 0 13 -3 6 -5 -7 -3 -9 -12
-6 -20 3 -8 0 -14 -6 -14 -8 0 -7 -6 1 -20 7 -11 21 -20 32 -20 15 0 16 -3 6
-15 -6 -8 -9 -22 -6 -32 7 -23 4 -39 -9 -35 -5 1 -3 -3 5 -10 16 -13 18 -42 7
-73 -4 -9 -3 -14 3 -10 6 3 10 1 10 -4 0 -6 -4 -11 -10 -11 -6 0 -5 -10 2 -25
8 -19 8 -28 -3 -42 -9 -11 -10 -14 -1 -9 7 4 12 1 12 -8 0 -9 5 -16 11 -16 6
0 8 7 5 16 -4 9 -2 13 5 8 6 -3 9 -19 5 -35 -5 -26 -3 -29 20 -29 21 0 23 -3
14 -19 -7 -14 -6 -21 3 -24 7 -3 5 -6 -5 -6 -11 -1 -15 -6 -12 -16 4 -8 1 -15
-5 -15 -6 0 -8 -7 -5 -15 8 -20 24 -19 39 2 11 15 12 14 11 -8 -1 -13 -6 -23
-11 -22 -6 1 -11 -10 -11 -24 -2 -17 2 -23 12 -19 8 3 14 1 14 -3 0 -5 -7 -12
-16 -15 -12 -4 -14 -13 -9 -29 3 -12 7 -27 7 -34 1 -6 8 -9 16 -5 9 3 13 1 10
-4 -4 -5 -7 -29 -9 -54 -2 -25 -9 -59 -16 -77 -7 -18 -13 -44 -13 -58 0 -15
-4 -24 -10 -20 -6 3 -10 -5 -10 -19 0 -14 -5 -28 -11 -31 -6 -4 -8 -13 -5 -21
3 -8 2 -14 -2 -14 -8 0 -32 -48 -32 -63 0 -22 -33 -76 -43 -70 -5 3 -7 1 -3
-5 3 -6 -5 -19 -19 -30 -14 -11 -25 -24 -25 -29 0 -4 -9 -25 -20 -46 -11 -20
-18 -37 -16 -37 8 0 64 59 86 90 12 17 29 30 38 30 15 0 15 -2 2 -10 -13 -8
-13 -10 1 -10 9 0 19 -9 22 -21 4 -16 3 -18 -8 -9 -17 14 -28 -12 -12 -31 7
-8 8 -11 3 -7 -9 7 -46 -56 -46 -79 0 -7 9 -13 20 -13 17 0 19 -2 8 -14 -10
-10 -18 -11 -33 -4 -16 9 -18 8 -7 -3 17 -19 15 -39 -5 -39 -10 0 -25 -5 -33
-11 -13 -9 -12 -10 2 -5 10 3 20 1 23 -4 4 -6 -4 -10 -17 -10 -18 0 -20 -2 -8
-10 12 -8 10 -10 -8 -10 -13 0 -20 4 -17 10 3 6 2 10 -4 10 -5 0 -13 -4 -16
-10 -3 -5 -1 -10 4 -10 14 0 14 -37 1 -45 -6 -4 -8 -10 -5 -15 3 -4 -11 -15
-30 -24 -19 -9 -35 -21 -35 -26 0 -15 -33 -50 -42 -44 -4 3 -5 -2 -2 -10 4
-11 0 -13 -18 -9 -21 6 -22 5 -9 -11 13 -15 13 -19 0 -27 -8 -5 -20 -9 -26 -9
-7 0 -13 -4 -13 -8 0 -5 -11 -15 -25 -22 -14 -7 -25 -20 -25 -27 0 -8 -5 -11
-12 -7 -8 5 -9 2 -5 -9 3 -10 2 -17 -3 -17 -6 0 -10 6 -10 13 0 7 -7 4 -15 -7
-11 -15 -15 -16 -16 -5 0 8 -5 2 -11 -13 -10 -29 -28 -38 -28 -15 0 8 -3 8 -9
-2 -6 -9 -18 -12 -32 -8 -13 3 -29 1 -36 -5 -7 -6 -13 -7 -13 -4 0 4 -6 1 -14
-6 -8 -7 -12 -16 -9 -20 2 -5 -9 -8 -25 -8 -17 0 -32 -6 -36 -15 -3 -8 -17
-15 -31 -15 -15 0 -24 -4 -20 -9 3 -5 -11 -15 -30 -21 -19 -6 -35 -17 -36 -23
0 -7 -3 -7 -6 2 -4 11 -7 11 -13 0 -5 -7 -14 -14 -22 -16 -7 -1 -31 -7 -53
-12 -35 -8 -36 -9 -11 -10 16 0 27 -3 25 -6 -18 -17 -382 -38 -371 -21 3 5 -2
7 -11 3 -9 -3 -19 -2 -22 4 -4 5 -10 7 -15 4 -4 -3 -10 1 -13 9 -3 7 -18 14
-32 14 -15 0 -30 3 -34 8 -12 17 -54 49 -46 35 5 -9 4 -12 -4 -10 -7 3 -12 8
-11 13 1 5 -12 15 -29 24 -17 8 -31 19 -31 24 0 12 -77 84 -113 106 -18 11
-26 23 -24 34 3 9 -9 31 -26 50 -17 18 -30 37 -29 42 2 5 -4 6 -12 3 -9 -4
-16 2 -19 15 -5 17 -11 19 -39 14 -30 -6 -31 -6 -11 6 l21 13 -23 18 c-17 12
-26 14 -31 6 -3 -6 0 -15 7 -20 11 -7 10 -9 -4 -9 -15 0 -17 6 -11 34 6 32 4
35 -23 38 -21 2 -27 8 -25 23 2 16 1 17 -7 6 -12 -18 4 -51 24 -51 8 0 15 -7
15 -15 0 -8 -7 -15 -16 -15 -8 0 -13 4 -10 9 6 9 -41 26 -58 22 -5 -1 -3 6 5
15 9 12 10 15 1 10 -7 -4 -15 -1 -18 8 -3 9 -12 16 -19 16 -16 0 -47 35 -38
43 3 4 -2 13 -11 20 -17 13 -17 14 -1 31 17 16 16 17 -8 11 -14 -4 -28 -2 -31
4 -5 7 0 9 11 5 15 -5 14 -2 -4 14 -12 11 -19 23 -15 27 4 5 -1 5 -11 2 -10
-4 -16 -3 -12 2 8 13 -5 42 -16 35 -5 -3 -9 -2 -8 3 1 4 1 17 -1 28 l-1 20 -9
-20 c-6 -14 -9 -16 -10 -5 -2 8 -2 18 -1 22 0 4 -8 12 -19 18 -12 6 -20 21
-20 35 0 14 -5 25 -10 25 -6 0 -9 3 -8 8 1 4 -6 21 -15 39 -9 18 -17 43 -17
58 0 14 -3 24 -7 24 -20 -3 -27 2 -13 11 12 7 9 13 -13 30 -20 16 -26 27 -21
42 5 16 3 19 -7 12 -12 -6 -12 -5 0 9 9 11 10 17 2 17 -6 0 -11 7 -11 16 0 8
-4 13 -8 10 -4 -2 -14 4 -21 16 -10 16 -10 19 1 12 11 -6 11 -5 0 9 -8 9 -11
21 -7 27 3 5 -2 10 -12 11 -10 0 -13 3 -6 6 10 4 10 9 1 26 -13 24 -19 43 -21
70 -1 9 -5 17 -9 17 -12 0 -10 78 2 85 6 3 10 11 10 16 0 6 -4 7 -10 4 -5 -3
-10 1 -10 10 0 9 4 14 10 10 10 -6 50 24 50 38 0 5 -7 4 -15 -3 -20 -16 -38
-1 -25 20 8 13 10 12 10 -3 0 -10 4 -16 9 -13 4 3 7 18 5 33 -4 24 -1 22 15
-12 l20 -40 1 30 c1 26 3 27 10 10 8 -19 9 -19 9 3 1 32 -2 37 -21 36 -9 0
-15 3 -12 8 3 4 0 8 -6 8 -7 0 -5 7 4 16 19 18 20 31 4 36 -7 3 -6 7 5 11 14
5 17 1 17 -22 0 -16 -6 -32 -12 -34 -7 -3 -3 -6 8 -6 18 -1 20 4 17 27 -3 20
-2 23 5 13 8 -11 12 -6 17 22 4 20 11 37 17 37 5 0 6 -5 2 -12 -4 -6 1 -17 10
-23 15 -11 15 -13 1 -19 -18 -6 -11 -26 8 -26 7 0 6 4 -3 11 -12 8 -9 9 11 5
19 -4 29 -1 33 9 3 8 0 15 -7 16 -7 1 -1 5 13 9 24 8 24 8 3 9 -13 1 -23 7
-23 16 0 8 -5 15 -11 15 -6 0 -8 -7 -5 -16 3 -8 2 -12 -4 -9 -13 8 -13 42 -1
49 5 4 12 0 14 -6 3 -7 6 -2 6 11 1 17 -3 22 -15 17 -9 -3 -19 -6 -24 -6 -4 0
-6 -10 -4 -22 2 -13 -4 -6 -13 15 -10 24 -21 36 -30 33 -7 -3 -13 1 -13 9 0 8
8 15 18 15 9 0 24 5 32 10 11 7 5 9 -20 5 l-35 -5 33 10 c18 6 30 15 27 20 -4
6 -2 10 3 10 10 0 22 -23 22 -41 0 -5 -7 -9 -16 -9 -14 0 -14 -3 -4 -16 12
-13 15 -11 27 18 9 22 10 34 3 36 -11 4 -14 23 -2 21 21 -4 32 3 33 19 1 16 2
16 6 0 2 -10 9 -18 15 -18 6 0 6 -6 -2 -15 -14 -17 -6 -65 11 -65 6 0 9 7 5
15 -4 10 1 15 14 15 11 0 20 6 20 14 0 8 5 18 11 22 8 5 10 -1 7 -20 -3 -14
-1 -26 3 -26 5 0 9 -4 9 -10 0 -5 -7 -7 -15 -4 -16 7 -21 -11 -5 -21 14 -9 50
13 50 30 0 8 -7 15 -16 15 -8 0 -12 5 -8 11 3 6 16 8 29 5 29 -7 53 37 33 62
-11 13 -10 15 2 10 8 -3 24 -2 35 3 20 7 20 8 -1 8 -17 1 -20 6 -16 32 3 22
-1 36 -18 51 -20 19 -21 22 -6 30 9 5 14 13 11 19 -4 5 -1 9 4 9 18 0 71 61
71 81 0 12 -16 26 -47 41 -27 12 -51 21 -55 20 -4 -1 -16 5 -25 13 -10 8 -22
16 -28 16 -5 0 -16 5 -22 11 -10 8 -13 6 -13 -6 0 -10 -5 -14 -10 -11 -6 4 -8
11 -5 16 4 5 0 9 -8 9 -9 0 -13 -13 -13 -42 1 -24 -4 -43 -11 -45 -9 -3 -11
10 -9 46 4 48 3 51 -20 49 -29 -3 -30 -6 -6 -25 16 -14 16 -14 0 -9 -10 3 -18
1 -18 -4 0 -6 -12 -10 -28 -10 -28 0 -66 32 -54 46 4 4 -4 4 -16 1 -22 -5 -23
-3 -17 21 3 15 11 29 16 30 5 2 9 10 9 18 0 9 -4 13 -9 10 -5 -4 -7 4 -4 16 4
19 3 20 -6 8 -9 -13 -11 -12 -11 3 0 10 7 26 16 34 12 12 15 13 13 2 -4 -20
11 -59 22 -59 6 0 8 4 5 9 -3 5 2 15 12 22 15 13 16 12 3 -3 -11 -15 -11 -18
1 -18 8 0 18 4 24 9 5 5 18 5 29 1 17 -7 16 -9 -9 -9 -22 -1 -27 -5 -22 -17 4
-9 1 -24 -6 -32 -9 -11 -9 -14 -1 -9 7 4 16 0 22 -10 8 -15 10 -11 11 20 0 34
3 38 23 35 16 -2 21 1 19 15 -2 9 2 17 8 17 5 0 10 8 9 18 0 10 -3 12 -6 5 -2
-7 -16 -13 -29 -13 -14 0 -23 4 -20 9 3 5 -1 14 -8 20 -12 10 -13 8 -9 -10 5
-18 3 -20 -16 -14 -12 4 -28 2 -36 -5 -9 -7 -15 -8 -20 0 -3 5 -1 10 6 10 8 0
8 4 -1 15 -7 9 -19 14 -27 11 -20 -8 -16 22 7 51 11 14 20 23 20 20 0 -3 14 7
32 23 23 22 34 26 40 17 5 -8 8 -7 8 5 0 10 10 20 25 24 30 7 33 24 5 31 -14
4 -19 11 -15 23 6 19 -8 33 -37 37 -11 2 -18 -4 -19 -15 0 -14 -2 -14 -7 -2
-4 8 -14 15 -22 15 -8 0 -14 6 -12 13 1 7 -9 12 -28 12 -16 0 -30 4 -30 10 0
5 -8 7 -17 4 -15 -5 -16 -4 -3 5 8 6 24 8 35 6 19 -5 19 -4 -1 6 -15 8 -20 17
-16 35 3 18 0 24 -14 25 -18 0 -18 1 1 9 11 5 14 9 7 9 -7 1 -10 6 -7 11 3 6
0 10 -7 10 -9 0 -9 3 -2 8 15 10 24 50 13 54 -16 5 2 68 19 68 13 0 12 3 -4
15 -18 13 -18 14 -1 15 14 0 18 7 15 30 -1 17 4 38 13 48 8 10 14 23 11 30 -5
16 15 16 21 0 4 -10 6 -10 6 -1 1 7 -5 18 -12 25 -20 18 2 38 30 27 18 -7 23
-5 23 7 0 8 -4 12 -10 9 -6 -3 -10 5 -10 19 0 14 -4 28 -10 31 -6 4 -10 -6
-10 -22 l-1 -28 -14 33 c-8 18 -19 31 -25 27 -5 -3 -10 -2 -10 4 0 5 9 13 20
16 11 4 18 11 15 16 -8 11 2 11 43 0 17 -5 32 -7 32 -3 0 11 -80 33 -92 26 -7
-4 -8 -2 -4 4 4 7 14 12 23 12 9 0 13 6 9 15 -7 18 16 20 47 4 12 -7 19 -8 15
-4 -4 4 0 14 10 22 16 14 16 14 -1 9 -11 -4 -16 -2 -12 5 10 15 30 5 29 -15z
m46 -1 c7 -9 8 -15 2 -15 -5 0 -12 7 -16 15 -3 8 -4 15 -2 15 2 0 9 -7 16 -15z
m520 -30 c0 -17 -2 -17 -10 -5 -5 8 -10 24 -10 35 0 17 2 17 10 5 5 -8 10 -24
10 -35z m-690 -50 c0 -5 -5 -3 -10 5 -5 8 -10 20 -10 25 0 6 5 3 10 -5 5 -8
10 -19 10 -25z m-68 -197 c26 -24 26 -53 2 -62 -11 -4 -12 -2 -4 14 14 26 13
29 -12 23 -22 -4 -22 -4 -3 8 19 12 18 13 -10 25 -17 8 -23 13 -13 14 9 0 28
-10 40 -22z m-918 -33 c3 -9 0 -15 -9 -15 -9 0 -12 6 -9 15 4 8 7 15 9 15 2 0
5 -7 9 -15z m2206 -37 c0 -14 -10 -9 -38 18 l-27 26 33 -18 c17 -10 32 -22 32
-26z m-2240 -10 c0 -16 -3 -19 -11 -11 -6 6 -8 16 -5 22 11 17 16 13 16 -11z
m30 2 c0 -5 -2 -10 -4 -10 -3 0 -8 5 -11 10 -3 6 -1 10 4 10 6 0 11 -4 11 -10z
m920 -60 c0 -5 -5 -10 -11 -10 -5 0 -7 5 -4 10 3 6 8 10 11 10 2 0 4 -4 4 -10z
m1320 6 c0 -3 -4 -8 -10 -11 -5 -3 -10 -1 -10 4 0 6 5 11 10 11 6 0 10 -2 10
-4z m46 -17 c4 -7 0 -16 -9 -21 -15 -8 -15 -10 1 -27 9 -9 23 -16 30 -13 6 2
12 -3 12 -13 0 -9 -5 -13 -11 -9 -6 3 -15 0 -20 -7 -8 -12 -10 -12 -18 0 -5 8
-8 19 -7 25 2 6 1 8 -1 4 -11 -19 -21 -5 -21 30 0 20 3 32 5 25 2 -7 11 -9 19
-6 13 5 13 7 2 14 -9 6 -9 9 -1 9 6 0 15 -5 19 -11z m28 -24 c-4 -8 -1 -15 7
-15 7 0 10 -3 6 -6 -3 -3 -15 -3 -27 1 -17 5 -19 10 -9 21 15 19 30 18 23 -1z
m-84 -5 c0 -5 -5 -10 -11 -10 -5 0 -7 5 -4 10 3 6 8 10 11 10 2 0 4 -4 4 -10z
m-1293 -22 c-3 -8 -6 -5 -6 6 -1 11 2 17 5 13 3 -3 4 -12 1 -19z m1690 -33 c0
-8 -4 -12 -9 -9 -5 3 -6 10 -3 15 9 13 12 11 12 -6z m26 -32 c-7 -2 -21 -2
-30 0 -10 3 -4 5 12 5 17 0 24 -2 18 -5z m-1706 -28 c0 -8 -5 -15 -11 -15 -6
0 -4 -5 4 -11 13 -9 13 -10 -1 -6 -9 3 -21 1 -26 -4 -6 -6 -10 -4 -10 5 0 8 4
13 9 10 5 -4 12 3 15 15 6 24 20 28 20 6z m-987 -44 c0 -5 -7 -11 -15 -15 -15
-5 -20 5 -8 17 9 10 23 9 23 -2z m10 -31 c0 -5 -4 -10 -10 -10 -5 0 -10 5 -10
10 0 6 5 10 10 10 6 0 10 -4 10 -10z m-7 -35 c4 -9 -1 -11 -14 -8 -10 3 -19
11 -19 19 0 16 26 8 33 -11z m-53 5 c0 -5 -4 -10 -10 -10 -5 0 -10 5 -10 10 0
6 5 10 10 10 6 0 10 -4 10 -10z m2837 -16 c-3 -3 -12 -4 -19 -1 -8 3 -5 6 6 6
11 1 17 -2 13 -5z m-2777 -33 c0 -14 -2 -14 -10 -1 -8 12 -10 12 -10 1 0 -11
-3 -11 -15 -1 -22 19 -18 28 10 22 15 -2 25 -11 25 -21z m2765 -11 c19 -8 19
-9 -2 -9 -12 -1 -25 4 -28 9 -7 12 2 12 30 0z m-2858 -22 c-3 -8 -6 -5 -6 6
-1 11 2 17 5 13 3 -3 4 -12 1 -19z m2420 -4 c-9 -9 -28 6 -21 18 4 6 10 6 17
-1 6 -6 8 -13 4 -17z m-2437 6 c0 -5 -2 -10 -4 -10 -3 0 -8 5 -11 10 -3 6 -1
10 4 10 6 0 11 -4 11 -10z m-105 -50 c8 -13 -5 -13 -25 0 -13 8 -13 10 2 10 9
0 20 -4 23 -10z m110 0 c-3 -5 -12 -10 -18 -10 -7 0 -6 4 3 10 19 12 23 12 15
0z m135 0 c9 12 10 12 8 -5 -3 -21 -22 -34 -48 -34 -9 0 -8 4 5 9 11 5 15 9 8
9 -7 1 -10 8 -6 17 5 13 7 13 14 2 7 -11 11 -10 19 2z m-284 -27 c-4 -9 -2
-19 4 -23 5 -3 -5 -6 -24 -6 l-33 0 21 22 c25 27 41 31 32 7z m73 4 c8 -11 4
-13 -22 -9 -27 4 -29 6 -12 13 11 4 21 8 21 8 1 1 6 -5 13 -12z m-15 -32 c-4
-8 -7 -15 -9 -15 -2 0 -5 7 -9 15 -3 9 0 15 9 15 9 0 12 -6 9 -15z m2683 -7
c-3 -8 -6 -5 -6 6 -1 11 2 17 5 13 3 -3 4 -12 1 -19z m-2917 -8 c0 -5 -4 -10
-10 -10 -5 0 -10 5 -10 10 0 6 5 10 10 10 6 0 10 -4 10 -10z m110 0 c0 -5 -8
-10 -17 -10 -15 0 -16 2 -3 10 19 12 20 12 20 0z m1313 -22 c-8 -46 -13 -48
-13 -5 0 21 4 37 10 37 5 0 7 -14 3 -32z m-1373 12 c11 -7 11 -10 2 -10 -7 0
-10 -4 -7 -10 10 -17 -5 -32 -20 -20 -11 9 -13 25 -6 48 2 5 17 1 31 -8z m253
-11 c-8 -8 -13 -7 -18 2 -5 8 -4 10 3 5 7 -4 12 -2 12 5 0 7 3 9 7 6 4 -4 2
-12 -4 -18z m-168 1 c3 -5 1 -10 -4 -10 -6 0 -11 5 -11 10 0 6 2 10 4 10 3 0
8 -4 11 -10z m1218 -7 c-3 -7 -9 -13 -13 -13 -4 0 -10 6 -13 13 -3 7 3 13 13
13 10 0 16 -6 13 -13z m-1516 -9 c-3 -3 -12 -4 -19 -1 -8 3 -5 6 6 6 11 1 17
-2 13 -5z m46 -8 c4 -10 1 -13 -9 -9 -7 3 -14 9 -14 14 0 14 17 10 23 -5z
m299 -5 c-5 -3 -12 -15 -15 -26 -4 -16 -5 -15 -6 6 -1 29 7 41 21 32 7 -3 7
-8 0 -12z m3271 -11 c18 -16 28 -30 22 -30 -11 1 -65 46 -65 55 0 11 12 4 43
-25z m-3308 10 c3 -5 1 -10 -4 -10 -6 0 -11 5 -11 10 0 6 2 10 4 10 3 0 8 -4
11 -10z m159 -6 c3 -8 2 -13 -3 -9 -5 3 -11 2 -14 -2 -2 -5 -2 -3 -1 4 2 6 -2
14 -9 17 -7 2 -5 5 4 5 9 1 20 -6 23 -15z m36 6 c0 -5 -7 -7 -15 -4 -8 4 -15
8 -15 10 0 2 7 4 15 4 8 0 15 -4 15 -10z m50 0 c0 -5 -5 -10 -11 -10 -5 0 -7
5 -4 10 3 6 8 10 11 10 2 0 4 -4 4 -10z m-1075 -20 c3 -5 2 -10 -4 -10 -5 0
-13 5 -16 10 -3 6 -2 10 4 10 5 0 13 -4 16 -10z m2039 -6 c5 -14 4 -15 -9 -4
-17 14 -19 20 -6 20 5 0 12 -7 15 -16z m-2264 -4 c0 -5 -5 -10 -11 -10 -5 0
-7 5 -4 10 3 6 8 10 11 10 2 0 4 -4 4 -10z m1050 0 c0 -5 -5 -10 -11 -10 -5 0
-7 5 -4 10 3 6 8 10 11 10 2 0 4 -4 4 -10z m-324 -15 c20 -19 5 -19 -20 0 -11
9 -14 15 -7 15 7 0 19 -7 27 -15z m114 -9 c8 -3 5 -4 -8 -2 -12 2 -25 -2 -30
-10 -7 -12 -11 -12 -25 4 -14 16 -15 19 -2 19 8 0 15 -5 15 -11 0 -6 5 -3 11
8 6 10 14 14 18 9 3 -6 13 -13 21 -17z m3645 14 c3 -5 1 -10 -4 -10 -6 0 -11
5 -11 10 0 6 2 10 4 10 3 0 8 -4 11 -10z m-4550 -10 c-27 -12 -43 -12 -25 0 8
5 22 9 30 9 10 0 8 -3 -5 -9z m119 -14 c4 -18 11 -22 30 -19 13 3 26 1 29 -4
5 -8 -86 -10 -123 -3 -3 0 3 7 14 15 10 7 16 18 13 22 -3 5 3 9 13 10 11 1 20
-7 24 -21z m-198 -6 c9 0 12 -4 9 -10 -3 -5 1 -10 10 -10 10 0 13 5 9 13 -5 7
0 6 11 -3 18 -14 17 -15 -4 -18 -24 -4 -62 23 -60 42 0 6 3 6 6 -1 2 -7 11
-13 19 -13z m123 -1 c-7 -4 -17 -5 -22 -2 -5 3 -3 9 4 14 7 4 17 5 22 2 5 -3
3 -9 -4 -14z m681 11 c0 -5 -5 -10 -11 -10 -5 0 -7 5 -4 10 3 6 8 10 11 10 2
0 4 -4 4 -10z m40 -15 c0 -8 -4 -15 -10 -15 -5 0 -7 7 -4 15 4 8 8 15 10 15 2
0 4 -7 4 -15z m3816 3 c5 -8 2 -9 -9 -5 -10 3 -17 2 -17 -3 0 -6 -10 -9 -22
-9 -17 1 -19 2 -5 6 9 2 17 9 17 14 0 13 27 11 36 -3z m-86 -8 c0 -5 -2 -10
-4 -10 -3 0 -8 5 -11 10 -3 6 -1 10 4 10 6 0 11 -4 11 -10z m-4267 -20 c3 -11
1 -20 -4 -20 -5 0 -9 7 -9 16 0 9 -5 12 -12 8 -7 -4 -8 -3 -4 4 11 18 23 14
29 -8z m497 11 c0 -5 -11 -8 -25 -8 -14 0 -25 3 -25 8 0 5 11 9 25 9 14 0 25
-4 25 -9z m124 0 c4 -5 -3 -7 -14 -4 -23 6 -26 13 -6 13 8 0 17 -4 20 -9z
m3743 -7 c-3 -3 -12 -4 -19 -1 -8 3 -5 6 6 6 11 1 17 -2 13 -5z m-47 -17 c0
-7 9 -23 21 -36 12 -12 19 -25 15 -28 -6 -6 -24 11 -48 45 -15 21 -17 22 -32
6 -9 -9 -19 -14 -22 -11 -3 2 2 12 11 21 20 19 55 21 55 3z m-4577 -10 c4 3 7
1 7 -6 0 -17 -32 -10 -38 9 -4 12 -3 13 10 3 8 -7 18 -10 21 -6z m151 -2 c-4
-8 -11 -12 -16 -9 -6 4 -5 10 3 15 19 12 19 11 13 -6z m82 3 c4 -6 3 -8 -4 -4
-6 3 -15 -2 -21 -11 -6 -10 -11 -13 -11 -7 0 9 19 34 26 34 2 0 6 -5 10 -12z
m384 -8 c0 -5 -4 -10 -10 -10 -5 0 -10 -6 -10 -14 0 -8 -7 -17 -16 -20 -22 -8
-34 -7 -34 3 0 5 8 8 17 7 12 0 19 7 21 22 3 21 32 32 32 12z m370 6 c0 -3 -4
-8 -10 -11 -5 -3 -10 -1 -10 4 0 6 5 11 10 11 6 0 10 -2 10 -4z m425 -6 c3 -5
2 -10 -4 -10 -5 0 -13 5 -16 10 -3 6 -2 10 4 10 5 0 13 -4 16 -10z m3200 0 c3
-5 2 -10 -4 -10 -5 0 -13 5 -16 10 -3 6 -2 10 4 10 5 0 13 -4 16 -10z m-4650
-10 c3 -5 1 -10 -4 -10 -6 0 -11 5 -11 10 0 6 2 10 4 10 3 0 8 -4 11 -10z
m798 -6 c-3 -9 -9 -12 -12 -7 -3 4 -10 11 -15 16 -5 4 0 7 12 7 15 0 20 -4 15
-16z m57 12 c0 -3 -4 -8 -10 -11 -5 -3 -10 -1 -10 4 0 6 5 11 10 11 6 0 10 -2
10 -4z m-300 -16 c0 -5 -7 -7 -15 -4 -8 4 -15 8 -15 10 0 2 7 4 15 4 8 0 15
-4 15 -10z m410 6 c0 -3 -4 -8 -10 -11 -5 -3 -10 -1 -10 4 0 6 5 11 10 11 6 0
10 -2 10 -4z m-923 -20 c-2 -6 -19 -12 -38 -14 -34 -3 -34 -3 -9 11 30 16 52
17 47 3z m673 5 c0 -4 -12 -7 -27 -5 -16 2 -22 1 -14 -2 11 -5 11 -8 0 -15 -9
-6 -2 -9 23 -9 20 0 40 -4 43 -10 4 -6 -5 -8 -22 -5 -15 3 -38 7 -50 8 -27 4
-43 17 -20 17 10 0 14 5 11 15 -5 11 1 15 25 15 17 0 31 -4 31 -9z m-557 -8
c-7 -2 -19 -2 -25 0 -7 3 -2 5 12 5 14 0 19 -2 13 -5z m-23 -23 c0 -5 -2 -10
-4 -10 -3 0 -8 5 -11 10 -3 6 -1 10 4 10 6 0 11 -4 11 -10z m253 -10 c-9 -11
-19 -17 -21 -15 -6 6 18 35 29 35 5 0 1 -9 -8 -20z m707 10 c0 -5 -4 -10 -10
-10 -5 0 -10 5 -10 10 0 6 5 10 10 10 6 0 10 -4 10 -10z m-513 -6 c-3 -3 -12
-4 -19 -1 -8 3 -5 6 6 6 11 1 17 -2 13 -5z m228 -4 c-3 -5 -12 -10 -18 -10 -7
0 -6 4 3 10 19 12 23 12 15 0z m3892 -6 c-3 -3 -12 -4 -19 -1 -8 3 -5 6 6 6
11 1 17 -2 13 -5z m-4157 -8 c0 -2 -9 -6 -20 -9 -11 -3 -18 -1 -14 4 5 9 34
13 34 5z m-283 -21 c0 -8 -4 -12 -9 -9 -5 3 -6 10 -3 15 9 13 12 11 12 -6z
m130 -2 c-9 -9 -20 -13 -24 -9 -4 4 -1 11 7 16 25 16 35 11 17 -7z m331 10
c-10 -2 -18 -9 -18 -14 0 -6 -5 -7 -10 -4 -16 10 -1 25 23 24 17 -1 18 -2 5
-6z m24 -25 c-8 -8 -9 -4 -5 13 4 13 8 18 11 10 2 -7 -1 -18 -6 -23z m88 28
c0 -2 -7 -6 -15 -10 -8 -3 -15 -1 -15 4 0 6 7 10 15 10 8 0 15 -2 15 -4z
m2030 -10 c0 -8 -4 -17 -9 -21 -12 -7 -24 12 -16 25 9 15 25 12 25 -4z m-2400
0 c0 -3 -4 -8 -10 -11 -5 -3 -10 -1 -10 4 0 6 5 11 10 11 6 0 10 -2 10 -4z
m-62 -51 c-2 -17 -7 -24 -16 -20 -8 3 -18 5 -23 5 -5 0 -9 4 -9 9 0 5 10 7 23
5 12 -2 16 -2 9 2 -13 6 -7 24 8 24 6 0 9 -11 8 -25z m436 17 c3 -5 -1 -9 -9
-9 -8 0 -12 4 -9 9 3 4 7 8 9 8 2 0 6 -4 9 -8z m1886 -17 c0 -8 -4 -15 -10
-15 -5 0 -10 7 -10 15 0 8 5 15 10 15 6 0 10 -7 10 -15z m-1991 -22 c9 -16 12
-16 21 -3 13 20 13 4 0 -21 -6 -10 -18 -19 -28 -19 -15 0 -15 2 -2 10 13 9 11
13 -10 30 -20 15 -21 20 -8 20 9 0 22 -8 27 -17z m-58 -41 c-11 -2 -21 -8 -21
-13 0 -5 -4 -9 -9 -9 -5 0 -8 10 -7 23 1 21 3 22 30 13 25 -10 26 -11 7 -14z
m-324 3 c0 -8 -4 -12 -9 -9 -5 3 -6 10 -3 15 9 13 12 11 12 -6z m303 -45 c0
-5 -2 -10 -4 -10 -3 0 -8 5 -11 10 -3 6 -1 10 4 10 6 0 11 -4 11 -10z m2095 0
c-3 -5 -11 -10 -16 -10 -6 0 -7 5 -4 10 3 6 11 10 16 10 6 0 7 -4 4 -10z
m-1975 -4 c0 -3 -4 -8 -10 -11 -5 -3 -10 -1 -10 4 0 6 5 11 10 11 6 0 10 -2
10 -4z m1926 -34 c-17 -16 -18 -16 -5 5 7 12 15 20 18 17 3 -2 -3 -12 -13 -22z
m-2196 2 c0 -2 -7 -4 -15 -4 -8 0 -15 4 -15 10 0 5 7 7 15 4 8 -4 15 -8 15
-10z m4250 6 c0 -5 -4 -10 -10 -10 -5 0 -10 5 -10 10 0 6 5 10 10 10 6 0 10
-4 10 -10z m-1950 -14 c0 -2 -7 -7 -16 -10 -8 -3 -12 -2 -9 4 6 10 25 14 25 6z
m1970 -31 c0 -8 -4 -15 -10 -15 -5 0 -7 7 -4 15 4 8 8 15 10 15 2 0 4 -7 4
-15z m-2037 -12 c-7 -2 -21 -2 -30 0 -10 3 -4 5 12 5 17 0 24 -2 18 -5z m7
-29 c0 -2 -7 -4 -15 -4 -8 0 -15 4 -15 10 0 5 7 7 15 4 8 -4 15 -8 15 -10z
m53 -9 c-7 -21 -13 -19 -13 6 0 11 4 18 10 14 5 -3 7 -12 3 -20z m-2203 -49
c0 -3 -4 -8 -10 -11 -5 -3 -10 -1 -10 4 0 6 5 11 10 11 6 0 10 -2 10 -4z
m1954 -68 c10 -38 7 -80 -5 -72 -6 4 -9 19 -5 36 5 24 3 29 -9 24 -10 -4 -15
1 -15 14 0 27 26 25 34 -2z m2256 -58 c0 -5 -2 -10 -4 -10 -3 0 -8 5 -11 10
-3 6 -1 10 4 10 6 0 11 -4 11 -10z m57 -223 c0 -7 -8 -13 -18 -13 -9 0 -15 6
-12 13 3 7 11 13 17 13 7 0 13 -6 13 -13z m-13 -53 c18 -7 12 -24 -10 -24 -8
0 -14 7 -14 15 0 17 2 18 24 9z m-74 -488 c0 -2 -7 -6 -15 -10 -8 -3 -15 -1
-15 4 0 6 7 10 15 10 8 0 15 -2 15 -4z m-120 -335 c0 -6 -4 -13 -10 -16 -5 -3
-10 1 -10 9 0 9 5 16 10 16 6 0 10 -4 10 -9z m-1643 -147 c-3 -3 -12 -4 -19
-1 -8 3 -5 6 6 6 11 1 17 -2 13 -5z m50 -10 c-3 -3 -12 -4 -19 -1 -8 3 -5 6 6
6 11 1 17 -2 13 -5z m1488 -142 c-4 -11 0 -13 19 -8 20 5 24 3 23 -14 -1 -11
-5 -20 -9 -20 -4 0 -8 -9 -8 -20 0 -11 -6 -20 -14 -20 -7 0 -16 -11 -18 -25
-3 -14 -1 -25 3 -25 5 0 9 6 9 14 0 8 9 18 20 21 11 3 20 10 20 14 0 4 11 13
25 19 l25 12 -19 -38 c-11 -21 -27 -44 -35 -51 -9 -8 -16 -22 -16 -32 0 -14
11 -8 46 26 26 26 55 45 68 45 12 0 27 5 33 11 6 6 17 9 25 6 8 -3 4 -8 -12
-15 -21 -9 -14 -17 11 -14 4 1 4 -9 1 -21 -5 -19 -7 -19 -10 -4 -2 11 -9 16
-18 13 -8 -3 -14 -1 -14 4 0 6 -10 10 -22 10 -19 0 -17 -4 15 -25 40 -28 48
-58 20 -74 -10 -6 -12 -11 -5 -11 18 0 14 -18 -5 -23 -17 -4 -17 -4 1 -12 12
-5 21 -3 27 6 5 8 9 10 10 4 0 -5 7 15 15 45 15 58 18 66 27 90 3 8 8 27 11
41 5 21 11 26 35 25 27 -1 28 -3 23 -38 -3 -26 -1 -38 8 -38 7 0 10 7 6 15 -3
8 -1 27 5 42 8 22 12 24 19 13 6 -8 10 -24 10 -35 0 -17 -2 -17 -10 -5 -8 12
-10 10 -10 -9 0 -13 -7 -29 -16 -35 -18 -13 -26 -78 -10 -73 6 2 12 15 14 29
2 15 10 29 19 32 11 4 14 2 10 -9 -8 -19 13 -31 24 -14 7 11 9 11 9 -2 0 -9
-6 -19 -14 -22 -9 -4 -12 -14 -9 -27 4 -17 8 -19 15 -8 5 8 6 2 2 -17 -8 -37
-14 -45 -14 -19 0 16 -2 17 -10 4 -15 -23 -13 -63 3 -54 9 5 9 3 -1 -7 -10
-11 -14 -11 -21 -1 -5 8 -8 2 -8 -17 0 -17 4 -28 9 -25 13 8 9 -4 -9 -32 -22
-34 -28 -85 -9 -78 8 3 17 12 20 20 3 8 10 14 15 14 6 0 8 -6 6 -12 -4 -9 7
-14 30 -15 28 -3 33 0 28 14 -5 13 -2 15 15 11 12 -4 25 -2 28 3 3 6 14 0 25
-12 22 -26 24 -35 7 -42 -8 -4 -7 -6 4 -6 11 -1 15 -7 11 -21 -3 -11 -10 -17
-15 -14 -6 4 -8 -6 -4 -27 5 -28 4 -30 -4 -11 -11 25 -16 27 -26 10 -4 -7 -3
-8 4 -4 7 4 12 1 12 -8 0 -8 -6 -17 -12 -20 -9 -4 -6 -10 10 -22 25 -18 29
-34 9 -34 -10 0 -13 -15 -13 -51 1 -52 -9 -72 -25 -48 -7 11 -9 10 -9 -3 0
-10 8 -19 18 -19 16 -1 16 -2 -1 -6 -15 -4 -16 -8 -6 -19 9 -11 9 -21 1 -39
-10 -21 -9 -25 3 -25 8 0 15 -4 15 -10 0 -5 -5 -10 -11 -10 -7 0 -9 -10 -5
-26 5 -20 4 -25 -7 -21 -8 3 -14 -1 -14 -9 0 -8 6 -13 12 -10 8 3 12 -5 11
-24 0 -16 -4 -26 -9 -23 -4 2 -4 10 -1 16 5 9 4 9 -5 1 -10 -9 -10 -17 -2 -33
10 -18 9 -20 -5 -14 -11 4 -15 3 -10 -5 3 -6 2 -13 -4 -17 -17 -10 -11 -25 8
-18 13 5 10 -2 -11 -29 -15 -21 -23 -39 -17 -43 6 -4 6 -15 0 -30 -6 -16 -6
-25 0 -25 6 0 10 -4 10 -10 0 -5 -7 -10 -15 -10 -9 0 -15 -9 -15 -23 0 -13 -5
-28 -11 -34 -8 -8 -8 -17 0 -32 11 -19 8 -25 -11 -22 -4 0 -4 -9 1 -22 10 -26
-6 -67 -26 -67 -7 0 -13 -4 -13 -10 0 -5 -3 -9 -7 -8 -5 0 -15 -1 -23 -5 -8
-3 -26 -7 -40 -10 -14 -2 -34 -8 -44 -12 -15 -6 -17 -5 -11 5 6 10 2 12 -19 8
-14 -3 -29 -1 -32 3 -3 5 -14 4 -25 -1 -13 -8 -25 -7 -40 1 -16 8 -23 8 -29
-1 -6 -9 -9 -9 -15 0 -4 6 -17 10 -28 9 -12 0 -24 0 -27 1 -11 4 -59 10 -125
14 -84 6 -176 24 -189 37 -6 5 -20 9 -31 9 -27 0 -85 28 -103 49 -8 9 -10 10
-7 2 5 -9 -1 -8 -19 4 -14 10 -26 24 -26 31 0 8 -9 14 -19 14 -11 0 -28 8 -37
17 -17 17 -18 17 -11 1 7 -20 6 -21 -17 -12 -9 3 -16 13 -16 22 0 8 -3 13 -6
9 -4 -3 -12 -1 -19 6 -36 35 -64 55 -69 50 -3 -4 -6 1 -6 10 0 10 -9 26 -20
37 -24 24 -26 40 -5 40 8 0 15 4 15 10 0 5 11 12 25 16 14 3 25 11 25 18 1 6
10 0 20 -13 17 -19 20 -20 20 -6 0 14 3 15 15 5 12 -10 15 -10 16 1 0 11 2 11
6 1 4 -10 8 -10 19 -1 17 14 19 2 1 -15 -7 -7 -18 -11 -25 -10 -7 1 -8 0 -2
-3 18 -9 11 -21 -10 -16 -12 3 -20 0 -20 -7 0 -8 9 -11 25 -8 14 3 25 1 25 -3
0 -5 5 -9 11 -9 8 0 7 5 -1 15 -7 9 -10 19 -6 22 4 4 11 1 16 -6 7 -12 11 -12
24 2 10 10 12 18 6 22 -5 3 -10 1 -10 -6 0 -22 -13 0 -16 26 -2 22 0 25 19 20
17 -5 19 -4 7 4 -8 5 -11 13 -8 17 4 4 3 15 -3 25 -6 13 -6 19 0 19 11 0 8 54
-4 83 -5 11 -3 17 6 17 8 0 7 4 -4 13 -12 9 -17 29 -18 75 -1 51 -5 65 -23 77
-20 15 -20 15 4 16 17 1 19 3 8 6 -17 4 -24 33 -20 91 0 13 -3 20 -10 16 -6
-4 -8 1 -3 15 5 17 3 20 -11 14 -14 -5 -16 -3 -11 11 4 10 7 27 7 39 0 12 4
18 8 12 8 -11 42 -16 42 -6 0 3 -7 19 -15 35 -9 16 -13 36 -11 43 4 11 1 11
-15 2 -15 -8 -24 -8 -32 0 -8 8 -6 11 6 11 9 0 17 5 17 10 0 6 -8 10 -17 10
-15 0 -16 2 -3 10 8 5 10 10 4 10 -6 0 -11 7 -11 16 0 10 7 6 22 -12 18 -23
23 -25 28 -11 5 14 16 8 56 -33 28 -28 54 -51 58 -51 4 0 7 -13 7 -29 -2 -36
3 -38 17 -7 9 21 9 20 6 -5 -3 -23 0 -28 17 -29 18 -1 18 -2 3 -6 -18 -5 -18
-5 0 -19 21 -16 59 -18 68 -4 4 6 -4 9 -17 7 -17 -1 -23 3 -22 16 1 10 -5 17
-15 17 -13 1 -13 2 3 12 15 9 22 7 33 -7 15 -22 29 -13 18 12 -5 10 -9 33 -11
51 -2 24 1 32 14 33 10 0 12 3 5 6 -7 2 -13 11 -13 19 0 8 -7 14 -17 14 -9 0
-13 3 -10 7 4 3 0 15 -9 25 -14 14 -14 20 -4 33 10 12 10 15 -3 15 -9 0 -19 9
-22 20 -3 11 -13 20 -21 20 -8 0 -14 7 -14 15 0 24 4 30 18 27 7 -2 12 8 12
27 0 24 3 28 20 24 11 -3 20 0 20 6 0 6 8 11 18 12 9 0 37 11 62 24 80 43 135
68 143 67 4 -1 7 3 7 9 0 6 6 9 14 6 8 -3 24 3 37 14 20 17 40 23 76 22 7 -1
11 3 8 7 -3 5 8 8 25 8 23 -1 29 -5 25 -16z m212 -34 c-3 -8 -6 -5 -6 6 -1 11
2 17 5 13 3 -3 4 -12 1 -19z m-527 -19 c0 -6 -4 -7 -10 -4 -5 3 -10 11 -10 16
0 6 5 7 10 4 6 -3 10 -11 10 -16z m507 -15 c-3 -3 -12 -4 -19 -1 -8 3 -5 6 6
6 11 1 17 -2 13 -5z m1833 -78 c0 -3 -4 -8 -10 -11 -5 -3 -10 -1 -10 4 0 6 5
11 10 11 6 0 10 -2 10 -4z m-2681 -125 c8 -5 9 -11 3 -15 -6 -3 -13 -2 -17 3
-3 6 -13 8 -23 5 -14 -5 -15 -4 -2 5 18 13 21 13 39 2z m191 5 c0 -2 -6 -9
-13 -15 -10 -8 -14 -7 -14 4 0 8 6 15 14 15 7 0 13 -2 13 -4z m2094 -14 c2 -4
-4 -9 -15 -9 -11 -1 -17 2 -14 8 7 11 22 12 29 1z m-2254 -32 c0 -5 -8 -10
-17 -10 -15 0 -16 2 -3 10 19 12 20 12 20 0z m157 -12 c-3 -8 -6 -5 -6 6 -1
11 2 17 5 13 3 -3 4 -12 1 -19z m-137 -12 c0 -3 -4 -8 -10 -11 -5 -3 -10 -1
-10 4 0 6 5 11 10 11 6 0 10 -2 10 -4z m2205 -26 c-3 -5 -10 -10 -16 -10 -5 0
-9 5 -9 10 0 6 7 10 16 10 8 0 12 -4 9 -10z m170 -8 c-3 -3 -11 0 -18 7 -9 10
-8 11 6 5 10 -3 15 -9 12 -12z m-156 -15 c-7 -8 -22 -12 -32 -9 -17 4 -15 7 9
17 34 14 41 12 23 -8z m-59 -7 c0 -5 -4 -10 -10 -10 -5 0 -10 5 -10 10 0 6 5
10 10 10 6 0 10 -4 10 -10z m440 -30 c-6 -11 -16 -20 -23 -19 -9 0 -9 2 1 6 6
2 12 11 12 19 0 8 5 14 10 14 7 0 7 -6 0 -20z m190 10 c0 -5 -4 -10 -10 -10
-5 0 -10 5 -10 10 0 6 5 10 10 10 6 0 10 -4 10 -10z m-1440 -10 c0 -5 -2 -10
-4 -10 -3 0 -8 5 -11 10 -3 6 -1 10 4 10 6 0 11 -4 11 -10z m-1370 -20 c0 -5
-2 -10 -4 -10 -3 0 -8 5 -11 10 -3 6 -1 10 4 10 6 0 11 -4 11 -10z m1030 -6
c0 -8 -5 -12 -10 -9 -6 4 -8 11 -5 16 9 14 15 11 15 -7z m2051 -6 c11 -21 11
-22 -4 -9 -10 7 -17 17 -17 22 0 15 9 10 21 -13z m-1634 6 c-3 -3 -12 -4 -19
-1 -8 3 -5 6 6 6 11 1 17 -2 13 -5z m931 -11 c-10 -2 -18 -9 -18 -15 0 -6 -3
-9 -6 -5 -10 10 6 27 24 26 15 -1 15 -2 0 -6z m76 -18 c-22 -17 -34 -19 -34
-6 0 5 8 12 18 14 32 9 36 7 16 -8z m-2257 -1 c-3 -3 -12 -4 -19 -1 -8 3 -5 6
6 6 11 1 17 -2 13 -5z m2490 0 c-3 -3 -12 -4 -19 -1 -8 3 -5 6 6 6 11 1 17 -2
13 -5z m-1280 -11 c-4 -3 -1 -13 5 -21 10 -12 9 -14 -7 -11 -25 5 -33 39 -9
39 10 0 14 -3 11 -7z m883 3 c0 -11 -19 -15 -25 -6 -3 5 1 10 9 10 9 0 16 -2
16 -4z m224 -8 c-7 -11 -34 -10 -34 1 0 6 9 9 19 8 11 0 17 -5 15 -9z m114 -9
c12 -18 11 -19 -7 -10 -11 6 -24 11 -30 11 -15 0 -14 -27 2 -33 6 -3 2 -4 -9
-4 -15 1 -20 6 -16 16 3 8 1 12 -4 8 -6 -3 -16 -2 -24 3 -16 10 -10 13 35 23
36 8 40 7 53 -14z m-228 1 c0 -5 -12 -10 -26 -10 -14 0 -23 4 -19 10 3 6 15
10 26 10 10 0 19 -4 19 -10z m-1026 -35 c-3 -7 -1 -23 6 -34 7 -14 7 -21 0
-21 -5 0 -10 4 -10 10 0 5 -10 14 -21 21 -25 13 -42 -4 -35 -33 2 -10 0 -18
-5 -18 -14 0 -11 50 4 64 7 7 18 11 25 8 6 -2 15 3 18 12 3 9 10 14 15 11 4
-3 6 -12 3 -20z m957 2 c-10 -9 -11 -8 -5 6 3 10 9 15 12 12 3 -3 0 -11 -7
-18z m152 3 c-3 -12 -8 -19 -11 -16 -5 6 5 36 12 36 2 0 2 -9 -1 -20z m57 -14
c0 -4 -9 -1 -19 6 -11 7 -17 16 -15 20 5 8 34 -15 34 -26z m165 24 c3 -5 1
-10 -4 -10 -6 0 -11 5 -11 10 0 6 2 10 4 10 3 0 8 -4 11 -10z m-1255 -10 c0
-5 -4 -10 -10 -10 -5 0 -10 5 -10 10 0 6 5 10 10 10 6 0 10 -4 10 -10z m990
-5 c0 -8 -10 -19 -22 -26 -18 -10 -20 -9 -15 4 3 9 1 18 -6 21 -7 3 -1 3 12 0
16 -4 21 -3 17 5 -4 6 -2 11 3 11 6 0 11 -7 11 -15z m353 3 c21 -11 21 -11 2
-18 -18 -7 -34 4 -35 23 0 10 8 9 33 -5z m512 2 c3 -5 -1 -10 -9 -10 -8 0 -18
5 -21 10 -3 6 1 10 9 10 8 0 18 -4 21 -10z m-1905 -10 c0 -5 -5 -10 -11 -10
-5 0 -7 5 -4 10 3 6 8 10 11 10 2 0 4 -4 4 -10z m830 6 c0 -3 -4 -8 -10 -11
-5 -3 -10 -1 -10 4 0 6 5 11 10 11 6 0 10 -2 10 -4z m437 -2 c-3 -3 -12 -4
-19 -1 -8 3 -5 6 6 6 11 1 17 -2 13 -5z m-136 -31 c13 -16 12 -17 -3 -4 -10 7
-18 15 -18 17 0 8 8 3 21 -13z m96 2 c3 -9 4 -18 2 -20 -8 -7 -59 8 -59 17 0
5 4 7 9 3 5 -3 12 -1 16 5 9 15 25 12 32 -5z m129 6 c-9 -14 20 -32 40 -25 11
4 16 3 11 -1 -10 -12 -87 -14 -87 -2 0 5 7 6 16 3 11 -4 15 -2 11 8 -3 8 -3
17 0 20 9 9 15 7 9 -3z m184 -1 c0 -5 -2 -10 -4 -10 -3 0 -8 5 -11 10 -3 6 -1
10 4 10 6 0 11 -4 11 -10z m-1586 -39 c0 -11 3 -21 8 -21 4 0 8 4 8 8 0 4 9 8
20 9 19 2 19 1 4 -14 -15 -15 -15 -18 2 -30 17 -12 17 -13 -2 -14 -16 -1 -15
-2 4 -7 13 -4 22 -11 21 -17 -4 -24 -12 -35 -24 -35 -8 0 -17 -4 -20 -10 -3
-6 1 -7 9 -4 10 4 16 1 16 -7 0 -11 2 -11 10 1 8 13 11 12 25 -5 14 -18 15
-18 8 -1 -4 13 -2 17 8 14 8 -3 13 -12 11 -22 -2 -10 4 -16 15 -17 14 0 15 -2
3 -6 -16 -6 -30 -23 -30 -36 0 -5 5 -5 12 -1 8 5 9 2 5 -9 -3 -9 -2 -19 3 -22
6 -4 10 -12 10 -18 0 -7 -4 -6 -11 3 -7 11 -9 1 -5 -37 2 -29 7 -56 10 -62 4
-5 -2 -14 -11 -20 -14 -8 -16 -12 -5 -22 6 -7 12 -19 12 -26 0 -7 -6 -11 -12
-9 -7 1 -10 1 -5 -1 4 -3 4 -10 1 -15 -4 -7 -2 -8 4 -4 7 4 12 1 12 -9 0 -10
-5 -13 -12 -9 -7 4 -8 3 -4 -5 4 -7 17 -9 29 -6 16 5 18 4 8 -3 -8 -6 -11 -17
-8 -27 4 -9 3 -14 -3 -10 -6 3 -10 -3 -10 -14 0 -11 -13 -35 -30 -53 -16 -18
-30 -27 -30 -20 0 8 -8 5 -22 -8 -12 -11 -26 -20 -32 -20 -5 0 -6 -3 -3 -7 10
-10 -83 -55 -100 -49 -8 3 -11 1 -8 -4 3 -6 -1 -10 -9 -10 -9 0 -16 -3 -16 -8
0 -14 -94 -31 -102 -18 -5 7 -8 5 -8 -6 0 -9 -5 -20 -10 -23 -13 -8 -1 47 12
56 5 3 6 14 2 24 -5 12 -4 16 3 12 7 -4 9 8 6 36 -4 31 -1 46 11 56 19 16 22
36 4 25 -9 -6 -9 -3 0 9 8 9 11 21 7 27 -3 5 -2 10 3 10 16 0 32 46 19 59 -8
8 -7 11 4 11 11 0 12 2 0 9 -10 7 -8 12 9 24 16 11 18 16 8 21 -10 5 -10 7 0
12 6 3 12 13 12 21 0 9 6 13 15 9 18 -6 20 19 5 59 -7 17 -7 24 0 20 6 -3 10
1 10 9 0 9 5 16 10 16 6 0 10 7 10 16 0 9 9 18 20 21 20 5 28 23 10 23 -5 0
-9 16 -7 34 1 24 8 36 20 40 15 4 17 11 11 41 -5 31 -4 37 13 41 15 4 19 12
15 31 -4 19 -1 24 9 21 8 -3 14 -15 13 -27z m1116 19 c0 -5 -5 -10 -11 -10 -5
0 -7 5 -4 10 3 6 8 10 11 10 2 0 4 -4 4 -10z m35 0 c3 -5 2 -10 -4 -10 -5 0
-12 -8 -14 -17 -3 -11 -5 -7 -6 10 -1 27 12 36 24 17z m48 -45 c-6 -17 -25
-15 -31 3 -2 7 5 12 17 12 14 0 19 -5 14 -15z m277 -1 c0 -2 -7 -4 -15 -4 -8
0 -15 4 -15 10 0 5 7 7 15 4 8 -4 15 -8 15 -10z m154 4 c-3 -4 -9 -8 -15 -8
-5 0 -9 4 -9 8 0 5 7 9 15 9 8 0 12 -4 9 -9z m-1554 -2 c0 -3 -4 -8 -10 -11
-5 -3 -10 -1 -10 4 0 6 5 11 10 11 6 0 10 -2 10 -4z m1294 -3 c-5 -5 -12 -12
-16 -18 -4 -6 -8 -2 -8 8 0 9 7 17 17 17 9 0 12 -3 7 -7z m79 -22 c15 -8 27
-18 27 -23 0 -4 11 -8 25 -8 14 0 25 -4 25 -10 0 -12 -2 -12 -34 0 -17 6 -26
6 -26 0 0 -6 4 -10 9 -10 5 0 11 -6 14 -14 4 -10 -2 -13 -18 -12 -13 0 -22 3
-19 5 2 2 -4 10 -14 17 -16 13 -16 13 1 14 21 0 23 20 1 20 -8 0 -12 5 -8 11
4 8 -1 9 -17 5 -13 -3 -18 -3 -11 0 6 3 9 10 6 16 -7 11 -6 11 39 -11z m122
-21 c3 0 5 -3 5 -7 0 -5 -9 -9 -19 -9 -11 -1 -19 4 -18 10 1 6 -8 12 -21 14
-12 2 -20 8 -17 13 4 5 19 2 35 -6 17 -9 32 -15 35 -15z m805 20 c0 -5 -2 -10
-4 -10 -3 0 -8 5 -11 10 -3 6 -1 10 4 10 6 0 11 -4 11 -10z m-1140 -4 c0 -3
-4 -8 -10 -11 -5 -3 -10 -1 -10 4 0 6 5 11 10 11 6 0 10 -2 10 -4z m130 -18
c0 -10 3 -9 9 1 5 8 11 9 15 3 10 -16 -17 -20 -44 -5 -25 12 -25 13 -2 13 12
0 22 -6 22 -12z m-1437 -15 c-3 -7 -9 -13 -14 -13 -5 0 -9 6 -9 13 0 8 6 14
14 14 8 0 12 -6 9 -14z m1797 -9 c0 -8 -5 -12 -10 -9 -6 4 -8 11 -5 16 9 14
15 11 15 -7z m-140 -13 c0 -6 -5 -13 -10 -16 -6 -4 -8 -11 -5 -16 4 -5 -1 -9
-10 -9 -11 0 -15 5 -12 14 3 8 1 17 -6 20 -7 3 -1 3 12 0 16 -4 21 -3 17 5 -4
6 -2 11 3 11 6 0 11 -4 11 -9z m35 -1 c3 -5 1 -10 -4 -10 -6 0 -11 5 -11 10 0
6 2 10 4 10 3 0 8 -4 11 -10z m-1858 -32 c-3 -8 -6 -5 -6 6 -1 11 2 17 5 13 3
-3 4 -12 1 -19z m2078 2 c3 -5 2 -10 -4 -10 -5 0 -13 5 -16 10 -3 6 -2 10 4
10 5 0 13 -4 16 -10z m-355 -10 c0 -5 -2 -10 -4 -10 -3 0 -8 5 -11 10 -3 6 -1
10 4 10 6 0 11 -4 11 -10z m-1740 -144 c0 -3 -4 -8 -10 -11 -5 -3 -10 -1 -10
4 0 6 5 11 10 11 6 0 10 -2 10 -4z m410 0 c0 -3 -4 -8 -10 -11 -5 -3 -10 -1
-10 4 0 6 5 11 10 11 6 0 10 -2 10 -4z m7 -32 c-3 -3 -12 -4 -19 -1 -8 3 -5 6
6 6 11 1 17 -2 13 -5z m-1537 -58 c0 -3 -4 -8 -10 -11 -5 -3 -10 -1 -10 4 0 6
5 11 10 11 6 0 10 -2 10 -4z m40 -20 c0 -3 -4 -8 -10 -11 -5 -3 -10 -1 -10 4
0 6 5 11 10 11 6 0 10 -2 10 -4z m-176 -104 c3 -5 -1 -9 -9 -9 -8 0 -15 4 -15
9 0 4 4 8 9 8 6 0 12 -4 15 -8z"/>
<path d="M2821 6331 c-8 -5 -9 -11 -3 -15 5 -3 12 1 16 9 6 17 6 18 -13 6z"/>
<path d="M2551 6134 c0 -11 3 -14 6 -6 3 7 2 16 -1 19 -3 4 -6 -2 -5 -13z"/>
<path d="M2686 5684 c-3 -7 3 -10 15 -7 27 7 34 22 9 20 -10 -1 -22 -7 -24
-13z"/>
<path d="M4353 5643 c9 -2 23 -2 30 0 6 3 -1 5 -18 5 -16 0 -22 -2 -12 -5z"/>
<path d="M4335 5620 c-3 -5 -1 -10 4 -10 6 0 11 5 11 10 0 6 -2 10 -4 10 -3 0
-8 -4 -11 -10z"/>
<path d="M4380 5625 c0 -3 7 -14 16 -23 15 -14 16 -14 13 3 -4 17 -29 35 -29
20z"/>
<path d="M2606 5571 c-3 -5 1 -11 9 -14 9 -4 12 -1 8 9 -6 16 -10 17 -17 5z"/>
<path d="M2676 5557 c3 -10 9 -15 12 -12 3 3 0 11 -7 18 -10 9 -11 8 -5 -6z"/>
<path d="M2921 5560 c8 -5 6 -11 -7 -19 -17 -9 -17 -10 -1 -11 9 0 17 -7 17
-15 0 -8 8 -29 18 -47 17 -31 23 -74 24 -188 1 -50 -31 -124 -57 -133 -8 -4
-15 -18 -15 -31 0 -18 4 -24 15 -20 8 4 15 1 15 -6 0 -7 8 -9 21 -5 16 5 19 4
14 -5 -7 -11 9 -29 26 -30 3 0 6 35 8 78 1 42 4 104 6 137 9 115 7 190 -6 220
-7 17 -12 33 -11 38 1 4 -2 7 -8 7 -5 0 -10 8 -10 18 0 14 -8 19 -30 19 -17 0
-26 -4 -19 -7z"/>
<path d="M3710 5555 c-8 -9 -8 -15 -2 -15 12 0 26 19 19 26 -2 2 -10 -2 -17
-11z"/>
<path d="M3390 5530 c0 -5 5 -10 10 -10 6 0 10 5 10 10 0 6 -4 10 -10 10 -5 0
-10 -4 -10 -10z"/>
<path d="M3694 5515 c16 -16 66 -21 66 -6 0 5 -14 11 -31 15 -46 9 -52 8 -35
-9z"/>
<path d="M2590 5475 c-9 -11 -10 -19 -3 -26 6 -6 13 -1 21 16 13 28 2 34 -18
10z"/>
<path d="M2920 5445 c0 -9 5 -15 11 -13 6 2 11 8 11 13 0 5 -5 11 -11 13 -6 2
-11 -4 -11 -13z"/>
<path d="M3698 5443 c7 -3 16 -2 19 1 4 3 -2 6 -13 5 -11 0 -14 -3 -6 -6z"/>
<path d="M4470 5441 c0 -6 4 -13 10 -16 6 -3 7 1 4 9 -7 18 -14 21 -14 7z"/>
<path d="M2612 5410 c-7 -11 -8 -20 -3 -20 9 0 24 30 18 36 -1 2 -8 -6 -15
-16z"/>
<path d="M4533 5423 c-16 -6 -17 -46 -1 -41 6 2 13 14 15 26 1 12 2 22 0 21
-1 0 -8 -3 -14 -6z"/>
<path d="M4516 5335 c4 -8 7 -15 9 -15 2 0 5 7 9 15 3 9 0 15 -9 15 -9 0 -12
-6 -9 -15z"/>
<path d="M4630 5320 c0 -5 5 -10 11 -10 5 0 7 5 4 10 -3 6 -8 10 -11 10 -2 0
-4 -4 -4 -10z"/>
<path d="M4705 5280 c3 -5 8 -10 11 -10 2 0 4 5 4 10 0 6 -5 10 -11 10 -5 0
-7 -4 -4 -10z"/>
<path d="M2930 5063 c0 -5 5 -15 10 -23 8 -12 10 -11 10 8 0 12 -4 22 -10 22
-5 0 -10 -3 -10 -7z"/>
<path d="M3514 5049 c-4 -8 -3 -10 4 -5 7 4 12 1 12 -8 0 -9 4 -16 9 -16 5 0
17 -3 27 -7 11 -4 15 -2 13 6 -3 7 -7 11 -11 9 -3 -2 -15 5 -26 15 -15 14 -22
15 -28 6z"/>
<path d="M3584 5005 c-21 -11 -21 -11 -3 -34 l19 -23 0 21 c0 12 5 19 10 16
12 -7 13 5 2 21 -5 7 -13 7 -28 -1z"/>
<path d="M2696 4960 c4 -25 2 -31 -5 -20 -5 8 -13 11 -17 7 -4 -3 -1 -14 7
-23 7 -9 12 -29 11 -45 -2 -26 1 -29 28 -29 16 0 30 5 30 11 0 7 -10 9 -27 5
-21 -5 -24 -4 -13 4 21 14 47 13 53 -2 5 -16 13 -10 21 19 6 19 2 25 -20 33
-19 8 -30 8 -38 0 -7 -7 -6 -10 3 -10 7 0 9 -4 6 -10 -3 -5 -11 -10 -16 -10
-6 0 -7 5 -4 10 3 6 2 10 -3 10 -6 0 -8 8 -6 18 3 9 0 28 -5 42 -10 22 -11 21
-5 -10z"/>
<path d="M3646 4845 c-3 -8 -1 -15 3 -15 5 0 11 7 15 15 3 8 1 15 -3 15 -5 0
-11 -7 -15 -15z"/>
<path d="M3460 4833 c-30 -8 -63 -14 -74 -14 -10 0 -16 -3 -12 -6 3 -3 -8 -21
-25 -40 -24 -28 -28 -38 -18 -49 13 -16 44 -19 34 -4 -3 6 0 10 9 10 8 0 17 6
19 13 4 10 6 10 6 0 1 -7 6 -13 12 -13 6 0 8 7 5 16 -3 9 -2 12 5 9 5 -4 17
-1 25 6 11 9 18 9 22 2 8 -12 40 -11 64 3 13 7 15 16 8 44 -4 19 -8 31 -9 25
-1 -6 -4 -6 -9 1 -5 8 -23 7 -62 -3z"/>
<path d="M2614 4755 c1 -28 16 -35 16 -7 0 14 2 15 10 2 6 -9 10 -10 10 -3 0
7 -9 17 -19 22 -16 9 -19 7 -17 -14z"/>
<path d="M3026 4742 c-15 -3 -17 -9 -11 -35 4 -18 8 -39 8 -47 3 -23 43 -51
63 -43 13 5 15 3 9 -7 -6 -10 -4 -12 9 -7 9 4 15 3 11 -2 -8 -14 6 -41 21 -41
8 0 17 -7 20 -15 4 -8 17 -15 31 -15 13 0 22 -4 19 -9 -8 -13 16 -19 39 -10
11 4 16 8 10 8 -12 1 -16 61 -4 61 5 0 8 3 7 8 -2 4 1 8 7 9 11 2 23 31 24 58
1 17 -1 17 -9 5 -7 -12 -10 -12 -10 -1 0 7 -6 11 -15 7 -8 -3 -15 -1 -15 4 0
5 8 11 18 13 13 4 11 5 -5 6 -13 0 -23 -3 -23 -7 0 -14 -134 18 -143 34 -4 8
-14 14 -22 14 -7 0 -15 4 -17 8 -1 4 -11 6 -22 4z m114 -96 c0 -2 -7 -7 -16
-10 -8 -3 -12 -2 -9 4 6 10 25 14 25 6z"/>
<path d="M3284 4689 c-3 -5 6 -9 20 -9 31 0 34 6 6 13 -11 3 -23 1 -26 -4z"/>
<path d="M3300 4661 c0 -10 24 -21 43 -21 7 0 3 7 -7 15 -22 17 -36 19 -36 6z"/>
<path d="M4075 4426 c-16 -6 -38 -19 -49 -30 -13 -13 -21 -15 -25 -7 -7 11
-81 11 -81 0 0 -7 -72 -35 -82 -32 -4 2 -8 -2 -8 -8 0 -7 -11 -8 -30 -4 -25 5
-30 3 -30 -12 0 -13 -8 -18 -32 -19 -18 -1 -34 -6 -36 -13 -2 -6 -17 -11 -33
-11 -22 0 -27 -3 -22 -17 4 -11 3 -14 -5 -9 -8 4 -12 0 -12 -11 0 -12 -3 -14
-8 -6 -10 16 -38 11 -63 -10 -10 -9 -35 -17 -53 -17 -31 0 -35 3 -33 24 1 14
-2 25 -8 25 -5 1 -10 -5 -10 -11 -1 -7 -6 -12 -13 -10 -7 1 -12 -6 -13 -15 0
-11 -3 -13 -6 -5 -6 16 -23 16 -23 -1 0 -7 -7 -22 -15 -33 -13 -16 -16 -17
-25 -4 -8 12 -10 10 -11 -10 0 -14 -3 -19 -6 -12 -6 16 -31 15 -49 -3 -9 -8
-21 -15 -27 -15 -7 0 -6 4 3 10 13 9 13 10 0 10 -8 0 -26 -10 -40 -23 -25 -23
-84 -49 -92 -41 -3 2 -5 -2 -5 -9 0 -6 -3 -22 -7 -34 -5 -14 -3 -23 3 -23 6 0
11 -7 11 -15 0 -15 13 -19 63 -15 15 1 27 -3 27 -9 0 -6 10 -10 22 -8 17 1 24
-4 26 -20 3 -17 11 -22 49 -25 27 -2 53 2 64 10 18 13 18 14 -8 38 -14 13 -36
24 -48 24 -13 0 -22 6 -22 15 0 8 6 15 12 15 7 0 18 7 25 15 19 22 60 19 60
-4 0 -15 5 -18 21 -14 20 6 30 22 30 48 0 11 31 26 68 32 13 2 30 11 38 19 8
7 20 14 27 14 8 0 19 7 27 16 15 19 87 14 100 -7 7 -11 9 -9 10 6 l0 20 9 -20
c5 -11 9 -15 9 -10 1 6 5 4 10 -4 13 -20 41 -6 42 21 1 17 2 18 6 6 5 -20 23
-24 23 -5 0 6 11 13 25 13 14 1 25 -2 25 -6 0 -17 39 3 44 23 5 17 8 19 15 9
6 -10 10 -7 15 13 4 15 10 25 13 21 3 -3 14 4 24 16 11 11 19 18 19 15 0 -8
13 2 80 63 24 22 49 40 56 40 16 0 11 29 -7 41 -17 11 -26 10 -64 -5z"/>
<path d="M3751 4344 c0 -11 3 -14 6 -6 3 7 2 16 -1 19 -3 4 -6 -2 -5 -13z"/>
<path d="M3498 4293 c7 -3 16 -2 19 1 4 3 -2 6 -13 5 -11 0 -14 -3 -6 -6z"/>
<path d="M2607 4270 c-3 -11 -1 -20 4 -20 5 0 9 9 9 20 0 11 -2 20 -4 20 -2 0
-6 -9 -9 -20z"/>
<path d="M3555 4280 c-3 -5 -1 -10 4 -10 6 0 11 5 11 10 0 6 -2 10 -4 10 -3 0
-8 -4 -11 -10z"/>
<path d="M2654 4181 c15 -54 18 -61 28 -55 8 5 9 1 5 -10 -4 -10 -3 -15 3 -11
6 3 10 14 10 23 0 15 2 15 10 2 6 -9 6 -18 0 -24 -6 -6 -5 -15 1 -23 9 -10 8
-13 -1 -13 -8 0 -11 -2 -8 -5 3 -3 20 2 39 10 28 13 29 15 7 11 -27 -6 -31 4
-14 33 6 9 5 12 -1 8 -6 -4 -14 0 -17 9 -3 9 -13 14 -20 11 -16 -6 -28 16 -20
36 3 8 -2 14 -11 14 -9 0 -14 -7 -11 -16z"/>
<path d="M2750 4115 c-7 -9 -8 -15 -2 -15 5 0 12 7 16 15 3 8 4 15 2 15 -2 0
-9 -7 -16 -15z"/>
<path d="M2758 4063 c7 -3 16 -2 19 1 4 3 -2 6 -13 5 -11 0 -14 -3 -6 -6z"/>
<path d="M3430 4014 c0 -8 5 -12 10 -9 6 4 8 11 5 16 -9 14 -15 11 -15 -7z"/>
<path d="M4720 3830 c0 -5 5 -10 10 -10 6 0 10 5 10 10 0 6 -4 10 -10 10 -5 0
-10 -4 -10 -10z"/>
<path d="M4651 3734 c0 -11 3 -14 6 -6 3 7 2 16 -1 19 -3 4 -6 -2 -5 -13z"/>
<path d="M4583 3695 c-9 -20 -8 -25 3 -25 8 0 14 4 14 9 0 5 3 16 6 25 10 26
-10 18 -23 -9z"/>
<path d="M4870 3370 c-8 -5 -12 -11 -9 -14 2 -3 11 -1 19 4 8 5 12 11 9 14 -2
3 -11 1 -19 -4z"/>
<path d="M4761 3254 c0 -11 3 -14 6 -6 3 7 2 16 -1 19 -3 4 -6 -2 -5 -13z"/>
<path d="M4135 3210 c3 -5 8 -10 11 -10 2 0 4 5 4 10 0 6 -5 10 -11 10 -5 0
-7 -4 -4 -10z"/>
<path d="M5050 2958 c-10 -22 -10 -22 4 -4 8 10 20 15 27 10 8 -4 10 -3 5 4
-11 18 -24 14 -36 -10z"/>
<path d="M4246 2937 c3 -10 9 -15 12 -12 3 3 0 11 -7 18 -10 9 -11 8 -5 -6z"/>
<path d="M5060 2918 c0 -11 12 -10 30 2 12 7 10 9 -8 7 -12 0 -22 -5 -22 -9z"/>
<path d="M4230 2860 c-8 -5 -10 -10 -5 -10 6 0 17 5 25 10 8 5 11 10 5 10 -5
0 -17 -5 -25 -10z"/>
<path d="M3910 2360 c-9 -6 -10 -10 -3 -10 6 0 15 5 18 10 8 12 4 12 -15 0z"/>
<path d="M3900 2290 c0 -5 5 -10 10 -10 6 0 10 5 10 10 0 6 -4 10 -10 10 -5 0
-10 -4 -10 -10z"/>
<path d="M5335 2791 c-3 -5 -1 -12 5 -16 5 -3 10 1 10 9 0 18 -6 21 -15 7z"/>
<path d="M5352 2748 c2 -6 10 -13 16 -14 7 -1 8 0 2 3 -5 2 -8 9 -4 14 3 5 0
9 -6 9 -7 0 -10 -5 -8 -12z"/>
<path d="M5305 2720 c3 -5 8 -10 11 -10 2 0 4 5 4 10 0 6 -5 10 -11 10 -5 0
-7 -4 -4 -10z"/>
<path d="M5270 2706 c0 -9 5 -16 10 -16 6 0 10 4 10 9 0 6 -4 13 -10 16 -5 3
-10 -1 -10 -9z"/>
<path d="M5330 2680 c0 -5 5 -10 11 -10 5 0 7 5 4 10 -3 6 -8 10 -11 10 -2 0
-4 -4 -4 -10z"/>
<path d="M5380 2668 c0 -6 3 -8 7 -5 3 4 12 2 20 -4 8 -7 13 -8 13 -1 0 5 -7
13 -16 16 -22 8 -24 8 -24 -6z"/>
<path d="M5305 2550 c10 -11 22 -20 27 -20 4 0 8 9 8 20 0 15 -7 20 -27 20
-25 0 -26 0 -8 -20z"/>
<path d="M5398 2493 c6 -2 18 -2 25 0 6 3 1 5 -13 5 -14 0 -19 -2 -12 -5z"/>
<path d="M1448 8233 c7 -3 16 -2 19 1 4 3 -2 6 -13 5 -11 0 -14 -3 -6 -6z"/>
<path d="M1410 8209 c0 -11 4 -18 10 -14 5 3 7 12 3 20 -7 21 -13 19 -13 -6z"/>
<path d="M1740 8209 c0 -4 -8 -5 -17 -2 -16 6 -16 5 -4 -10 10 -13 18 -14 32
-6 11 5 25 7 32 3 9 -5 9 -4 0 6 -15 16 -43 22 -43 9z"/>
<path d="M1826 8183 c-6 -14 -5 -15 5 -6 7 7 10 15 7 18 -3 3 -9 -2 -12 -12z"/>
<path d="M1857 8133 c-4 -3 -7 -11 -7 -17 0 -6 5 -5 12 2 6 6 9 14 7 17 -3 3
-9 2 -12 -2z"/>
<path d="M1893 8123 c4 -3 -5 -15 -20 -25 -16 -10 -22 -18 -13 -18 20 1 50 24
50 39 0 6 -5 11 -12 11 -6 0 -8 -3 -5 -7z"/>
<path d="M1820 8105 c0 -8 4 -15 10 -15 5 0 7 7 4 15 -4 8 -8 15 -10 15 -2 0
-4 -7 -4 -15z"/>
<path d="M1181 8086 c-18 -32 -4 -55 16 -27 9 13 11 26 5 36 -7 13 -10 12 -21
-9z"/>
<path d="M1895 8080 c-3 -5 -1 -10 4 -10 6 0 11 5 11 10 0 6 -2 10 -4 10 -3 0
-8 -4 -11 -10z"/>
<path d="M1997 8073 c-2 -5 2 -19 9 -33 13 -25 14 -25 14 -2 0 12 -5 22 -11
22 -5 0 -7 5 -4 10 3 6 4 10 1 10 -3 0 -7 -3 -9 -7z"/>
<path d="M1913 8063 c-7 -3 -13 -9 -13 -14 0 -6 4 -7 10 -4 12 8 0 -28 -13
-36 -5 -3 -2 -9 7 -12 9 -4 15 -3 14 1 -1 4 2 15 6 24 10 23 4 46 -11 41z"/>
<path d="M1940 7997 c9 -7 21 -23 27 -37 12 -25 12 -24 6 5 -6 30 -19 45 -38
45 -5 -1 -3 -6 5 -13z"/>
<path d="M2020 7996 c0 -9 5 -16 10 -16 6 0 10 4 10 9 0 6 -4 13 -10 16 -5 3
-10 -1 -10 -9z"/>
<path d="M2186 7975 c4 -8 10 -15 15 -15 5 0 9 7 9 15 0 8 -7 15 -15 15 -9 0
-12 -6 -9 -15z"/>
<path d="M2123 7955 c0 -8 6 -15 13 -15 8 0 11 6 8 15 -4 8 -9 15 -13 15 -4 0
-8 -7 -8 -15z"/>
<path d="M2006 7951 c-3 -5 1 -11 9 -15 8 -3 15 -1 15 4 0 13 -18 22 -24 11z"/>
<path d="M2032 7882 c-15 -50 -3 -90 14 -44 5 15 7 41 4 57 l-5 30 -13 -43z"/>
<path d="M1941 7834 c0 -11 3 -14 6 -6 3 7 2 16 -1 19 -3 4 -6 -2 -5 -13z"/>
<path d="M2050 7826 c0 -2 7 -6 15 -10 8 -3 15 -1 15 4 0 6 -7 10 -15 10 -8 0
-15 -2 -15 -4z"/>
<path d="M2096 7821 c-3 -5 1 -11 9 -14 9 -4 12 -1 8 9 -6 16 -10 17 -17 5z"/>
<path d="M2061 7793 c-1 -17 16 -25 25 -12 4 7 3 9 -4 5 -5 -3 -13 0 -15 6 -4
9 -6 10 -6 1z"/>
<path d="M2144 7785 c8 -8 18 -24 21 -35 3 -11 10 -20 15 -20 13 0 -1 44 -18
58 -22 17 -37 15 -18 -3z"/>
<path d="M2021 7738 c-13 -38 -14 -41 -2 -34 5 4 11 0 14 -6 2 -7 7 -10 11 -6
4 3 1 16 -6 27 -11 18 -11 23 1 30 8 5 9 11 3 15 -6 3 -15 -8 -21 -26z"/>
<path d="M2046 7732 c-4 -7 -2 -12 3 -12 6 0 11 -8 11 -18 0 -10 6 -25 13 -34
11 -15 14 -14 32 4 20 19 20 19 -9 14 -27 -5 -28 -4 -22 27 4 20 3 27 -3 18
-7 -11 -9 -11 -13 0 -3 10 -6 10 -12 1z"/>
<path d="M2135 7720 c4 -6 11 -8 16 -5 14 9 11 15 -7 15 -8 0 -12 -5 -9 -10z"/>
<path d="M2031 7663 c-1 -20 -4 -21 -26 -13 -16 6 -25 6 -25 0 0 -6 9 -10 20
-10 12 0 20 -7 21 -17 0 -13 3 -11 10 6 5 14 8 32 6 40 -3 10 -5 8 -6 -6z"/>
<path d="M2117 7639 c7 -7 15 -10 18 -7 3 3 -2 9 -12 12 -14 6 -15 5 -6 -5z"/>
<path d="M2250 7625 c-7 -8 -9 -15 -4 -15 5 0 2 -5 -6 -10 -20 -13 -5 -12 55
3 l50 13 -34 12 c-43 15 -46 15 -61 -3z"/>
<path d="M2137 7619 c-9 -5 -22 -7 -27 -4 -6 3 -10 1 -10 -4 0 -6 -5 -11 -11
-11 -5 0 -7 5 -4 10 3 6 1 10 -4 10 -6 0 -11 -5 -11 -11 0 -5 -4 -7 -10 -4 -5
3 -10 1 -10 -5 0 -7 6 -10 13 -7 20 7 46 -11 30 -21 -8 -5 -9 -13 -3 -22 7
-10 10 -11 10 -2 0 18 27 15 39 -5 6 -10 11 -13 11 -7 0 6 -7 17 -15 24 -17
14 -20 40 -4 40 6 0 17 7 25 15 18 17 7 19 -19 4z"/>
<path d="M2278 7583 c7 -3 16 -2 19 1 4 3 -2 6 -13 5 -11 0 -14 -3 -6 -6z"/>
<path d="M2237 7564 c6 -15 23 -19 23 -5 0 5 -7 11 -14 14 -10 4 -13 1 -9 -9z"/>
<path d="M2310 7576 c0 -2 7 -7 16 -10 8 -3 12 -2 9 4 -6 10 -25 14 -25 6z"/>
<path d="M2175 7550 c-15 -17 -16 -20 -3 -20 19 0 42 26 30 34 -5 3 -17 -3
-27 -14z"/>
<path d="M2328 7543 c7 -3 16 -2 19 1 4 3 -2 6 -13 5 -11 0 -14 -3 -6 -6z"/>
<path d="M2121 7528 c-1 -10 5 -18 13 -18 8 0 18 -9 21 -21 9 -27 16 -20 8 9
-3 12 -11 22 -18 22 -7 0 -16 6 -18 13 -3 7 -6 5 -6 -5z"/>
<path d="M2220 7524 c0 -10 -7 -13 -27 -9 -22 4 -20 2 7 -9 19 -7 38 -11 43
-9 12 7 8 31 -8 37 -9 3 -15 0 -15 -10z"/>
<path d="M2275 7530 c3 -5 8 -10 11 -10 2 0 4 5 4 10 0 6 -5 10 -11 10 -5 0
-7 -4 -4 -10z"/>
<path d="M2060 7506 c0 -8 -6 -16 -12 -19 -10 -4 -10 -7 0 -18 11 -12 14 -12
22 1 13 20 12 37 0 45 -5 3 -10 0 -10 -9z"/>
<path d="M2094 7490 c-1 -16 3 -27 7 -24 11 6 12 54 2 54 -5 0 -8 -13 -9 -30z"/>
<path d="M2266 7499 c6 -11 31 -12 37 -1 3 4 -6 8 -19 8 -13 1 -21 -2 -18 -7z"/>
<path d="M2181 7484 c0 -11 3 -14 6 -6 3 7 2 16 -1 19 -3 4 -6 -2 -5 -13z"/>
<path d="M2144 7430 c0 -16 5 -18 26 -13 33 8 38 13 14 13 -11 0 -24 4 -30 10
-6 6 -10 3 -10 -10z"/>
<path d="M2028 7393 c6 -2 18 -2 25 0 6 3 1 5 -13 5 -14 0 -19 -2 -12 -5z"/>
<path d="M1910 7319 c0 -5 5 -7 10 -4 6 3 10 8 10 11 0 2 -4 4 -10 4 -5 0 -10
-5 -10 -11z"/>
<path d="M1950 7300 c0 -5 5 -10 11 -10 5 0 7 5 4 10 -3 6 -8 10 -11 10 -2 0
-4 -4 -4 -10z"/>
<path d="M1880 7270 c0 -5 5 -10 11 -10 5 0 7 5 4 10 -3 6 -8 10 -11 10 -2 0
-4 -4 -4 -10z"/>
<path d="M1955 7270 c3 -5 11 -10 16 -10 6 0 7 5 4 10 -3 6 -11 10 -16 10 -6
0 -7 -4 -4 -10z"/>
<path d="M1930 7210 c-13 -8 -12 -10 3 -10 9 0 17 5 17 10 0 12 -1 12 -20 0z"/>
<path d="M1830 7140 c0 -5 5 -10 11 -10 5 0 7 5 4 10 -3 6 -8 10 -11 10 -2 0
-4 -4 -4 -10z"/>
<path d="M1830 6990 c0 -5 5 -10 10 -10 6 0 10 5 10 10 0 6 -4 10 -10 10 -5 0
-10 -4 -10 -10z"/>
<path d="M1775 6940 c-3 -5 -1 -10 4 -10 6 0 11 5 11 10 0 6 -2 10 -4 10 -3 0
-8 -4 -11 -10z"/>
<path d="M1590 6625 c0 -8 8 -15 18 -14 10 0 12 3 4 6 -6 2 -10 9 -6 14 3 5 0
9 -5 9 -6 0 -11 -7 -11 -15z"/>
<path d="M1506 6572 c-3 -5 1 -9 9 -9 8 0 12 4 9 9 -3 4 -7 8 -9 8 -2 0 -6 -4
-9 -8z"/>
<path d="M1640 6571 c0 -5 7 -11 14 -14 10 -4 13 -1 9 9 -6 15 -23 19 -23 5z"/>
<path d="M1581 6524 c0 -11 3 -14 6 -6 3 7 2 16 -1 19 -3 4 -6 -2 -5 -13z"/>
<path d="M1603 6488 c3 -10 2 -18 -2 -18 -5 0 -4 -11 2 -25 7 -14 15 -25 20
-25 12 0 8 28 -5 33 -10 4 -10 7 0 15 10 7 9 12 -4 23 -16 12 -17 12 -11 -3z"/>
<path d="M1536 6471 c10 -10 22 -16 27 -14 10 6 -18 33 -34 33 -8 0 -5 -7 7
-19z"/>
<path d="M1567 6444 c-3 -3 -2 -16 2 -28 12 -35 7 -51 -15 -48 -11 1 -21 -3
-22 -10 -1 -7 -4 -26 -8 -42 -5 -21 -4 -27 5 -22 6 4 8 12 5 18 -5 7 -2 9 8 6
8 -4 21 -2 29 3 10 6 11 9 1 9 -8 0 -6 8 7 22 21 22 20 68 -2 77 -5 2 -3 7 4
12 8 5 9 9 3 9 -6 0 -13 -3 -17 -6z"/>
<path d="M1345 6160 c-3 -5 -1 -10 4 -10 6 0 11 5 11 10 0 6 -2 10 -4 10 -3 0
-8 -4 -11 -10z"/>
<path d="M1450 6140 c-7 -13 -7 -20 -1 -20 6 0 15 9 21 20 7 13 7 20 1 20 -6
0 -15 -9 -21 -20z"/>
<path d="M1430 6070 c-9 -6 -10 -10 -3 -10 6 0 15 5 18 10 8 12 4 12 -15 0z"/>
<path d="M1460 6060 c0 -5 12 -10 26 -10 14 0 23 4 19 10 -3 6 -15 10 -26 10
-10 0 -19 -4 -19 -10z"/>
<path d="M1388 6043 c7 -3 16 -2 19 1 4 3 -2 6 -13 5 -11 0 -14 -3 -6 -6z"/>
<path d="M1336 6005 c-9 -26 -7 -32 5 -12 6 10 9 21 6 23 -2 3 -7 -2 -11 -11z"/>
<path d="M1391 5978 c1 -18 3 -26 6 -17 3 11 11 15 24 12 10 -3 19 0 19 6 0 6
-10 11 -22 12 -22 1 -22 1 2 9 l25 8 -27 1 c-25 1 -28 -2 -27 -31z"/>
<path d="M1357 5963 c-12 -12 -7 -23 11 -23 13 0 14 2 3 9 -11 7 -11 9 0 14 8
3 9 6 3 6 -6 1 -14 -2 -17 -6z"/>
<path d="M1445 5960 c-4 -6 -11 -8 -16 -5 -5 4 -9 2 -9 -4 0 -5 -6 -11 -12
-14 -7 -2 -3 -2 9 -1 12 2 23 1 26 -4 2 -4 2 -2 1 5 -2 6 5 13 14 15 12 2 13
6 5 11 -6 4 -14 3 -18 -3z"/>
<path d="M1398 5913 c7 -3 16 -2 19 1 4 3 -2 6 -13 5 -11 0 -14 -3 -6 -6z"/>
<path d="M1236 5891 c-4 -7 -5 -15 -2 -18 9 -9 19 4 14 18 -4 11 -6 11 -12 0z"/>
<path d="M1390 5891 c0 -5 -8 -12 -17 -14 -14 -4 -12 -5 5 -6 13 -1 22 5 22
14 0 8 -2 15 -5 15 -3 0 -5 -4 -5 -9z"/>
<path d="M1270 5886 c0 -9 30 -14 35 -6 4 6 -3 10 -14 10 -12 0 -21 -2 -21 -4z"/>
<path d="M1190 5830 c-13 -8 -12 -10 3 -10 9 0 17 5 17 10 0 12 -1 12 -20 0z"/>
<path d="M406 5821 c-4 -5 3 -7 14 -4 23 6 26 13 6 13 -8 0 -17 -4 -20 -9z"/>
<path d="M1005 5821 c-18 -7 -17 -8 7 -13 19 -4 25 -1 21 9 -3 7 -6 13 -7 12
0 0 -10 -4 -21 -8z"/>
<path d="M470 5801 c0 -5 5 -13 10 -16 6 -3 10 -2 10 4 0 5 -4 13 -10 16 -5 3
-10 2 -10 -4z"/>
<path d="M110 5789 c0 -5 11 -9 25 -9 14 0 25 2 25 4 0 2 -11 6 -25 8 -14 3
-25 1 -25 -3z"/>
<path d="M1088 5783 c6 -2 18 -2 25 0 6 3 1 5 -13 5 -14 0 -19 -2 -12 -5z"/>
<path d="M88 5755 c-3 -16 -1 -25 7 -25 8 0 10 9 7 25 -2 14 -6 25 -7 25 -1 0
-5 -11 -7 -25z"/>
<path d="M238 5763 c7 -3 16 -2 19 1 4 3 -2 6 -13 5 -11 0 -14 -3 -6 -6z"/>
<path d="M595 5760 c-3 -5 -1 -10 4 -10 6 0 11 5 11 10 0 6 -2 10 -4 10 -3 0
-8 -4 -11 -10z"/>
<path d="M1162 5758 c5 -15 28 -23 28 -10 0 5 -7 13 -16 16 -10 4 -14 1 -12
-6z"/>
<path d="M290 5744 c0 -8 5 -12 10 -9 6 4 8 11 5 16 -9 14 -15 11 -15 -7z"/>
<path d="M1328 5753 c7 -3 16 -2 19 1 4 3 -2 6 -13 5 -11 0 -14 -3 -6 -6z"/>
<path d="M450 5739 c0 -5 5 -7 10 -4 6 3 10 8 10 11 0 2 -4 4 -10 4 -5 0 -10
-5 -10 -11z"/>
<path d="M1005 5740 c3 -5 10 -10 16 -10 5 0 9 5 9 10 0 6 -7 10 -16 10 -8 0
-12 -4 -9 -10z"/>
<path d="M220 5726 c0 -2 7 -6 15 -10 8 -3 15 -1 15 4 0 6 -7 10 -15 10 -8 0
-15 -2 -15 -4z"/>
<path d="M1138 5723 c7 -3 16 -2 19 1 4 3 -2 6 -13 5 -11 0 -14 -3 -6 -6z"/>
<path d="M54 5694 c-18 -14 -18 -15 4 -4 12 6 22 13 22 15 0 8 -5 6 -26 -11z"/>
<path d="M1200 5701 c0 -9 -9 -12 -25 -9 -14 3 -28 1 -31 -3 -3 -5 2 -9 10 -9
9 0 16 -5 16 -11 0 -6 -9 -9 -20 -6 -11 3 -20 2 -20 -3 0 -4 9 -10 20 -13 14
-4 26 3 41 25 12 16 18 32 15 35 -3 4 -6 1 -6 -6z"/>
<path d="M0 5690 c0 -5 7 -7 15 -4 19 8 19 14 0 14 -8 0 -15 -4 -15 -10z"/>
<path d="M121 5664 c0 -11 3 -14 6 -6 3 7 2 16 -1 19 -3 4 -6 -2 -5 -13z"/>
<path d="M301 5654 c0 -11 3 -14 6 -6 3 7 2 16 -1 19 -3 4 -6 -2 -5 -13z"/>
<path d="M470 5660 c0 -6 7 -10 15 -10 8 0 15 2 15 4 0 2 -7 6 -15 10 -8 3
-15 1 -15 -4z"/>
<path d="M90 5629 c0 -5 5 -7 10 -4 6 3 10 8 10 11 0 2 -4 4 -10 4 -5 0 -10
-5 -10 -11z"/>
<path d="M133 5618 c3 -19 -1 -28 -12 -31 -12 -4 -11 -5 4 -6 17 -1 18 -3 5
-12 -12 -8 -10 -9 9 -4 16 5 21 4 17 -4 -4 -6 -17 -11 -30 -11 -28 0 -36 -8
-29 -26 3 -8 19 -14 36 -14 33 0 28 14 -8 23 -20 5 35 11 64 8 7 -2 11 4 9 11
-3 7 -11 13 -19 13 -9 0 -13 10 -12 28 1 17 -3 27 -12 27 -7 0 -16 6 -19 13
-3 6 -4 0 -3 -15z"/>
<path d="M730 5631 c0 -5 5 -13 10 -16 6 -3 10 -2 10 4 0 5 -4 13 -10 16 -5 3
-10 2 -10 -4z"/>
<path d="M203 5623 c9 -2 25 -2 35 0 9 3 1 5 -18 5 -19 0 -27 -2 -17 -5z"/>
<path d="M262 5610 c0 -14 2 -19 5 -12 2 6 2 18 0 25 -3 6 -5 1 -5 -13z"/>
<path d="M281 5614 c0 -11 3 -14 6 -6 3 7 2 16 -1 19 -3 4 -6 -2 -5 -13z"/>
<path d="M398 5613 c7 -3 16 -2 19 1 4 3 -2 6 -13 5 -11 0 -14 -3 -6 -6z"/>
<path d="M438 5613 c7 -3 16 -2 19 1 4 3 -2 6 -13 5 -11 0 -14 -3 -6 -6z"/>
<path d="M643 5605 c0 -8 8 -15 18 -15 12 0 16 5 13 15 -4 8 -12 15 -18 15 -7
0 -13 -7 -13 -15z"/>
<path d="M688 5613 c6 -2 18 -2 25 0 6 3 1 5 -13 5 -14 0 -19 -2 -12 -5z"/>
<path d="M0 5600 c0 -5 5 -10 10 -10 6 0 10 5 10 10 0 6 -4 10 -10 10 -5 0
-10 -4 -10 -10z"/>
<path d="M520 5599 c0 -5 5 -7 10 -4 6 3 10 8 10 11 0 2 -4 4 -10 4 -5 0 -10
-5 -10 -11z"/>
<path d="M20 5585 c-14 -8 -19 -14 -10 -14 8 0 24 6 34 14 25 19 9 19 -24 0z"/>
<path d="M380 5590 c0 -5 5 -10 11 -10 5 0 7 5 4 10 -3 6 -8 10 -11 10 -2 0
-4 -4 -4 -10z"/>
<path d="M860 5580 c0 -5 5 -10 11 -10 5 0 7 5 4 10 -3 6 -8 10 -11 10 -2 0
-4 -4 -4 -10z"/>
<path d="M75 5570 c3 -5 13 -10 21 -10 8 0 12 5 9 10 -3 6 -13 10 -21 10 -8 0
-12 -4 -9 -10z"/>
<path d="M287 5553 c3 -7 6 -13 8 -13 2 0 5 6 8 13 3 8 -1 14 -8 14 -7 0 -11
-6 -8 -14z"/>
<path d="M626 5554 c-11 -7 -16 -17 -13 -21 4 -4 15 1 24 10 22 21 14 30 -11
11z"/>
<path d="M735 5530 c3 -5 8 -10 11 -10 2 0 4 5 4 10 0 6 -5 10 -11 10 -5 0 -7
-4 -4 -10z"/>
<path d="M473 5481 c4 -16 1 -21 -16 -21 -32 0 -15 -9 26 -13 20 -2 34 -1 32
4 -3 4 1 9 7 12 7 2 -2 12 -21 21 -33 18 -34 18 -28 -3z m31 -10 c3 -5 0 -11
-7 -14 -8 -3 -14 1 -14 9 0 16 13 19 21 5z"/>
<path d="M731 5474 c0 -25 2 -26 8 -9 l8 20 5 -20 c4 -14 6 -15 7 -4 0 9 -6
22 -14 29 -13 11 -15 8 -14 -16z"/>
<path d="M530 5486 c0 -2 7 -7 16 -10 8 -3 12 -2 9 4 -6 10 -25 14 -25 6z"/>
<path d="M650 5480 c0 -5 5 -10 10 -10 6 0 10 5 10 10 0 6 -4 10 -10 10 -5 0
-10 -4 -10 -10z"/>
</g>
</svg>
